<svg xmlns="http://www.w3.org/2000/svg" viewBox="0 0 774 247"><g data-name="Layer 2"><g data-name="Layer 1"><path fill="#4b77fd" d="M0 0h774v247H0z"/><path d="M293.009 43.874h8.824v65.945h-8.824v-3.983a16.39 16.39 0 01-11.752 5.076 16.73 16.73 0 01-12.962-5.7 21.198 21.198 0 01-5.115-14.525 20.493 20.493 0 015.115-14.211 16.319 16.319 0 0112.767-5.74q6.677 0 11.947 5.467zM272.16 90.688a13.244 13.244 0 002.928 8.902 9.59 9.59 0 007.574 3.475 10.08 10.08 0 007.887-3.357 12.998 12.998 0 003.007-8.824 13 13 0 00-3.007-8.824 9.938 9.938 0 00-7.809-3.397 9.713 9.713 0 00-7.574 3.436 12.662 12.662 0 00-3.006 8.59zm75.393 2.186H320.3a11.542 11.542 0 003.045 7.457 9.285 9.285 0 006.91 2.733 8.988 8.988 0 005.428-1.562 22.214 22.214 0 004.801-5.778l7.42 4.139a29.558 29.558 0 01-3.632 5.017 19.353 19.353 0 01-4.1 3.436 16.467 16.467 0 01-4.724 1.972 23.026 23.026 0 01-5.505.624q-8.512 0-13.665-5.466-5.155-5.505-5.154-14.602 0-9.02 4.998-14.602 5.036-5.506 13.352-5.506 8.394 0 13.275 5.35 4.84 5.31 4.841 14.719zm-9.02-7.184q-1.835-7.027-8.862-7.028a9.11 9.11 0 00-3.007.488 8.601 8.601 0 00-2.557 1.406 8.887 8.887 0 00-1.971 2.206 10.243 10.243 0 00-1.25 2.928zm-62.165 43.36v40.215l12.377-12.299h11.791l-16.516 15.969 17.726 22.06h-11.4l-12.572-16.047-1.405 1.405v14.641h-8.786V129.05zm39.824 0v65.944h-8.785V129.05zm39.161 27.916h8.824v38.029h-8.825v-3.983q-5.427 5.076-11.673 5.076a16.817 16.817 0 01-13.04-5.7 21.198 21.198 0 01-5.116-14.525 20.546 20.546 0 015.116-14.25 16.486 16.486 0 0112.805-5.7q6.638 0 11.909 5.466zm-20.85 18.897a13.244 13.244 0 002.929 8.902 9.59 9.59 0 007.574 3.475 10.08 10.08 0 007.887-3.358 14.45 14.45 0 000-17.647 9.938 9.938 0 00-7.809-3.397 9.712 9.712 0 00-7.574 3.436 12.662 12.662 0 00-3.006 8.59zm49.547-18.897v21.825q0 9.45 7.457 9.45t7.457-9.45v-21.825h8.785v22.02a24.524 24.524 0 01-1.132 7.887 13.244 13.244 0 01-3.788 5.35 18.459 18.459 0 01-22.605 0 13.448 13.448 0 01-3.865-5.35 21.728 21.728 0 01-1.094-7.886v-22.02zm43.846 8.2v29.829h-8.786v-29.83h-3.748v-8.199h3.748v-13.938h8.785v13.938h6.832v8.2zm48.14 12.884h-27.252a11.542 11.542 0 003.045 7.457 9.284 9.284 0 006.911 2.733 8.988 8.988 0 005.427-1.562 22.216 22.216 0 004.802-5.778l7.419 4.138a29.564 29.564 0 01-3.631 5.017 19.356 19.356 0 01-4.1 3.436 16.47 16.47 0 01-4.725 1.972 23.026 23.026 0 01-5.505.625q-8.512 0-13.665-5.467-5.155-5.504-5.154-14.602 0-9.019 4.998-14.602 5.036-5.505 13.352-5.505 8.394 0 13.275 5.349 4.841 5.31 4.842 14.72zm-9.02-7.184q-1.835-7.028-8.862-7.028a9.11 9.11 0 00-3.007.488 8.603 8.603 0 00-2.556 1.406 8.889 8.889 0 00-1.972 2.206 10.243 10.243 0 00-1.25 2.928zm18.624-13.9h8.786v3.397a16.765 16.765 0 014.295-3.475 9.847 9.847 0 014.528-.976 14.197 14.197 0 017.263 2.265l-4.022 8.043a8.389 8.389 0 00-4.88-1.796q-7.184 0-7.184 10.854v19.717h-8.786zm38.693-27.916v32.328q5.27-5.466 11.947-5.466a16.439 16.439 0 0112.806 5.74 20.492 20.492 0 015.115 14.211q0 8.785-5.154 14.524a16.615 16.615 0 01-12.923 5.7 16.43 16.43 0 01-11.791-5.075v3.982h-8.785V129.05zm20.888 47.204a13.137 13.137 0 00-2.967-8.902 9.508 9.508 0 00-7.535-3.514 10.1 10.1 0 00-7.887 3.397 12.613 12.613 0 00-3.007 8.745 12.8 12.8 0 002.968 8.863 9.863 9.863 0 007.809 3.397 9.685 9.685 0 007.574-3.397 12.473 12.473 0 003.045-8.59zm16.476-.547a18.896 18.896 0 015.896-14.017 20.8 20.8 0 0128.814.04 20.362 20.362 0 01-.039 28.619 20.153 20.153 0 01-14.563 5.739 19.325 19.325 0 01-14.33-5.857 19.694 19.694 0 01-5.778-14.524zm8.98.156q0 5.701 3.045 9.02a11.834 11.834 0 0016.477.038 14.277 14.277 0 000-17.725 11.689 11.689 0 00-16.399 0 12.216 12.216 0 00-3.122 8.667zm39.083-.156a18.896 18.896 0 015.896-14.017 20.8 20.8 0 0128.814.04 20.362 20.362 0 01-.04 28.619 20.153 20.153 0 01-14.563 5.739 19.325 19.325 0 01-14.329-5.857 19.694 19.694 0 01-5.778-14.524zm8.98.156q0 5.701 3.045 9.02a11.834 11.834 0 0016.477.038 14.277 14.277 0 000-17.725 11.689 11.689 0 00-16.399 0 12.216 12.216 0 00-3.123 8.667zm40.878-18.897h8.785v3.514a18.336 18.336 0 014.334-3.592 10.512 10.512 0 014.802-.976 11.657 11.657 0 0110.19 5.622 13.19 13.19 0 0111.206-5.622q12.844 0 12.845 15.579v23.504h-8.823v-21.123q0-5.465-1.328-7.73a4.812 4.812 0 00-4.49-2.304 5.73 5.73 0 00-5.29 2.733q-1.66 2.734-1.66 8.786v19.638h-8.823V173.99q0-10.15-5.857-10.151a5.87 5.87 0 00-5.407 2.772q-1.698 2.773-1.698 8.746v19.639h-8.785zm-452.602-31.224a72.29 72.29 0 00-84.635-71.186l.025 96.12 23.406-18.958c9.196-7.528 5.292-14.773-8.365-14.77l-.001-5.574 55.74-.014.002 5.574s-18.394 1.12-29.261 10.041l-23.685 19.515 37.279 37.491a72.141 72.141 0 0029.495-58.24m-81.264 32.179l-3.344 2.79.002 5.016c.006 23.687 2.627 30.663 14.706 32.22a71.98 71.98 0 0023.056-4.555zM61 125.742c0 27.403 16.778 51.242 39.26 63.487 1.83-4.923 2.364-12.363 2.361-23.498L102.6 77.66a133.929 133.929 0 00-.74-16.252C78.504 73.378 61 97.693 61 125.742" fill="#fff"/></g></g></svg>