<svg width="71" height="73" viewBox="0 0 71 73" fill="none" xmlns="http://www.w3.org/2000/svg">
<path d="M54.4688 2.51562H70.3594V71H54.4688V63.8281C47.9531 69.9219 40.9453 72.9688 33.4453 72.9688C23.9766 72.9688 16.1484 69.5469 9.96094 62.7031C3.82031 55.7188 0.75 47 0.75 36.5469C0.75 26.2812 3.82031 17.7266 9.96094 10.8828C16.1016 4.03906 23.7891 0.617188 33.0234 0.617188C40.9922 0.617188 48.1406 3.89844 54.4688 10.4609V2.51562ZM16.9219 36.5469C16.9219 43.1094 18.6797 48.4531 22.1953 52.5781C25.8047 56.75 30.3516 58.8359 35.8359 58.8359C41.6953 58.8359 46.4297 56.8203 50.0391 52.7891C53.6484 48.6172 55.4531 43.3203 55.4531 36.8984C55.4531 30.4766 53.6484 25.1797 50.0391 21.0078C46.4297 16.9297 41.7422 14.8906 35.9766 14.8906C30.5391 14.8906 25.9922 16.9531 22.3359 21.0781C18.7266 25.25 16.9219 30.4062 16.9219 36.5469Z" fill="#F0F0F0"/>
</svg>
