<svg width="48" height="82" viewBox="0 0 48 82" fill="none" xmlns="http://www.w3.org/2000/svg">
<path d="M11.2031 0.828125V39.6406C15.4219 35.2656 20.2031 33.0781 25.5469 33.0781C31.7031 33.0781 36.8281 35.375 40.9219 39.9688C45.0156 44.5312 47.0625 50.2188 47.0625 57.0312C47.0625 64.0625 45 69.875 40.875 74.4688C36.7812 79.0312 31.6094 81.3125 25.3594 81.3125C20.0781 81.3125 15.3594 79.2812 11.2031 75.2188V80H0.65625V0.828125H11.2031ZM36.2812 57.5C36.2812 53.125 35.0938 49.5625 32.7188 46.8125C30.3125 44 27.2969 42.5938 23.6719 42.5938C19.7969 42.5938 16.6406 43.9531 14.2031 46.6719C11.7969 49.3594 10.5938 52.8594 10.5938 57.1719C10.5938 61.6094 11.7812 65.1562 14.1562 67.8125C16.5312 70.5312 19.6562 71.8906 23.5312 71.8906C27.1875 71.8906 30.2188 70.5312 32.625 67.8125C35.0625 65.0625 36.2812 61.625 36.2812 57.5Z" fill="#F0F0F0"/>
</svg>
