<svg width="548" height="571" viewBox="0 0 548 571" fill="none" xmlns="http://www.w3.org/2000/svg">
<path d="M64.4689 83.5156H80.3595V152H64.4689V144.828C57.9532 150.922 50.9454 153.969 43.4454 153.969C33.9767 153.969 26.1486 150.547 19.9611 143.703C13.8204 136.719 10.7501 128 10.7501 117.547C10.7501 107.281 13.8204 98.7266 19.9611 91.8828C26.1017 85.0391 33.7892 81.6172 43.0236 81.6172C50.9923 81.6172 58.1407 84.8984 64.4689 91.4609V83.5156ZM26.922 117.547C26.922 124.109 28.6798 129.453 32.1954 133.578C35.8048 137.75 40.3517 139.836 45.8361 139.836C51.6954 139.836 56.4298 137.82 60.0392 133.789C63.6486 129.617 65.4532 124.32 65.4532 117.898C65.4532 111.477 63.6486 106.18 60.0392 102.008C56.4298 97.9297 51.7423 95.8906 45.9767 95.8906C40.5392 95.8906 35.9923 97.9531 32.3361 102.078C28.7267 106.25 26.922 111.406 26.922 117.547Z" fill="#F0F0F0"/>
<path d="M163.203 137.828V176.641C167.422 172.266 172.203 170.078 177.547 170.078C183.703 170.078 188.828 172.375 192.922 176.969C197.016 181.531 199.063 187.219 199.063 194.031C199.063 201.062 197 206.875 192.875 211.469C188.781 216.031 183.609 218.312 177.359 218.312C172.078 218.312 167.359 216.281 163.203 212.219V217H152.656V137.828H163.203ZM188.281 194.5C188.281 190.125 187.094 186.562 184.719 183.812C182.313 181 179.297 179.594 175.672 179.594C171.797 179.594 168.641 180.953 166.203 183.672C163.797 186.359 162.594 189.859 162.594 194.172C162.594 198.609 163.781 202.156 166.156 204.812C168.531 207.531 171.656 208.891 175.531 208.891C179.188 208.891 182.219 207.531 184.625 204.812C187.063 202.062 188.281 198.625 188.281 194.5Z" fill="#F0F0F0"/>
<path d="M44.3536 222.318V234.728C42.2231 232.127 40.3139 230.342 38.6261 229.374C36.9659 228.378 35.0153 227.88 32.774 227.88C29.2601 227.88 26.3409 229.111 24.0167 231.574C21.6925 234.036 20.5304 237.121 20.5304 240.829C20.5304 244.62 21.651 247.733 23.8922 250.167C26.1611 252.602 29.0525 253.82 32.5665 253.82C34.8077 253.82 36.7861 253.336 38.5016 252.367C40.1617 251.426 42.1124 249.6 44.3536 246.889V259.215C40.5629 261.18 36.7723 262.162 32.9816 262.162C26.7283 262.162 21.4988 260.142 17.2931 256.103C13.0874 252.035 10.9845 246.986 10.9845 240.954C10.9845 234.922 13.115 229.831 17.3761 225.68C21.6372 221.53 26.8667 219.455 33.0646 219.455C37.049 219.455 40.812 220.409 44.3536 222.318Z" fill="#F0F0F0"/>
<path d="M372.208 199.052L332.444 471.348L116.511 300.763L372.208 199.052Z" stroke="#F0F0F0" stroke-width="36"/>
</svg>
