<svg width="35" height="44" viewBox="0 0 35 44" fill="none" xmlns="http://www.w3.org/2000/svg">
<path d="M34.3535 3.31836V15.728C32.223 13.1271 30.3138 11.3424 28.626 10.374C26.9658 9.37793 25.0151 8.87988 22.7739 8.87988C19.2599 8.87988 16.3408 10.1112 14.0166 12.5737C11.6924 15.0363 10.5303 18.1214 10.5303 21.8291C10.5303 25.6198 11.6509 28.7326 13.8921 31.1675C16.161 33.6024 19.0524 34.8198 22.5664 34.8198C24.8076 34.8198 26.786 34.3356 28.5015 33.3672C30.1616 32.4264 32.1123 30.6003 34.3535 27.8887V40.2153C30.5628 42.1799 26.7721 43.1621 22.9814 43.1621C16.7282 43.1621 11.4987 41.1423 7.29297 37.1025C3.08724 33.0352 0.984375 27.9855 0.984375 21.9536C0.984375 15.9217 3.11491 10.8306 7.37598 6.68018C11.637 2.52979 16.8665 0.45459 23.0645 0.45459C27.0488 0.45459 30.8118 1.40918 34.3535 3.31836Z" fill="#F0F0F0"/>
</svg>
