<svg id="Layer_1" data-name="Layer 1" xmlns="http://www.w3.org/2000/svg" viewBox="0 0 1440 899"><defs><style>.cls-1{fill:#4b71f4;}</style></defs><title>jos-2-01</title><path class="cls-1" d="M198,748.5C109.6,732.9,21.8333,792.333-7,824l-.5,108,1458,10.9984q-.72-109.5351-2.5723-219.0616c-.6093-34.5836-1.3032-69.1688-2.3924-103.7412-.6719-21.3261,16.6817-59.217,1.1511-74.9906-6.549-6.6515-27.2757-16.62-35.7909-20.4444-45.2069-20.3031-89.9544-40.9708-136.9748-56.82-89.1213-30.04-185.1987-24.2863-272.9917,9.9178-34.24,13.34-66.8061,36.4915-98.2671,55.4-33.1343,19.9141-65.7686,40.7233-97.0142,63.5092-34.1945,24.9363-69.4171,48.8622-107.994,66.5609-41.8257,19.1893-85.37,35.3175-128.1037,52.439l-2.6936,1.0792c-49.7766,19.9439-95.4222,32.3457-148.9314,36.8541C345.6338,759.7916,269.6977,761.1569,198,748.5Z"/></svg>