<svg id="Layer_1" data-name="Layer 1" xmlns="http://www.w3.org/2000/svg" xmlns:xlink="http://www.w3.org/1999/xlink" viewBox="0 0 1440 899">
  <defs>
    <mask id="mask" x="-7.5" y="0" width="1458" height="942.998" maskUnits="userSpaceOnUse">
      <g id="mask0">
        <rect width="1440" height="900" style="fill: #577ff7"/>
      </g>
    </mask>
  </defs>
  <title>jos</title>
  <g style="mask: url(#mask)">
    <path d="M198,748.5C109.6,732.9,21.833,792.333-7,824l-.5,108,1458,11q-.72-109.534-2.572-219.061c-.61-34.584-1.3-69.169-2.393-103.741-.672-21.327,4.682-65.217-10.849-80.991-6.549-6.652-15.275-10.62-23.79-14.444-45.207-20.3-89.955-40.971-136.975-56.82-89.122-30.04-185.2-24.286-272.992,9.918-34.24,13.34-66.806,36.491-98.267,55.4-33.134,19.914-65.769,40.723-97.014,63.509-34.2,24.936-69.417,48.862-107.994,66.561-41.826,19.189-85.37,35.317-128.1,52.439l-2.694,1.079c-49.776,19.944-95.422,32.346-148.931,36.854C345.634,759.792,269.7,761.157,198,748.5Z" style="fill: #4f79f6"/>
  </g>
</svg>
