<?xml version="1.0" encoding="utf-8"?>
<!-- Generator: Adobe Illustrator 23.0.2, SVG Export Plug-In . SVG Version: 6.00 Build 0)  -->
<svg version="1.1" id="Layer_1" xmlns="http://www.w3.org/2000/svg" xmlns:xlink="http://www.w3.org/1999/xlink" x="0px" y="0px"
	 viewBox="0 0 1440 899" style="enable-background:new 0 0 1440 899;" xml:space="preserve">
<style type="text/css">
	.st0{fill:#4B71F4;}
</style>
<path class="st0" d="M198,748.5C109.6,732.9,21.8,792.3-7,824l-0.5,108c0,0,1458,11,1458,11c-0.5-73-1.3-146-2.6-219.1
	c-0.6-34.6-1.3-69.2-2.4-103.7c-0.7-21.3,16.7-59.2,1.2-75c-6.5-6.7-27.3-16.6-35.8-20.4c-45.2-20.3-90-41-137-56.8
	c-89.1-30-185.2-24.3-273,9.9c-34.2,13.3-66.8,36.5-98.3,55.4c-33.1,19.9-65.8,40.7-97,63.5c-34.2,24.9-69.4,48.9-108,66.6
	c-41.8,19.2-85.4,35.3-128.1,52.4c-0.9,0.4-1.8,0.7-2.7,1.1c-49.8,19.9-95.4,32.3-148.9,36.9C345.6,759.8,269.7,761.2,198,748.5z"/>
</svg>
