<svg xmlns="http://www.w3.org/2000/svg" viewBox="0 0 781.231 205.565">
  <title>logo-text-black</title>
  <g id="Layer_2" data-name="Layer 2">
    <g id="Layer_1-2" data-name="Layer 1">
      <text transform="translate(226.007 81.017)" style="font-size: 92px;fill: #1e1e1e;font-family: Futura-Medium, Futura;font-weight: 500">de</text>
      <text transform="translate(229.007 179.017)" style="font-size: 92px;fill: #1e1e1e;font-family: Futura-Medium, Futura;font-weight: 500">klau<tspan x="174.027" y="0" style="letter-spacing: 0.0087890625em">t</tspan><tspan x="199.992" y="0">erboom</tspan><tspan x="523.834" y="0" style="fill: #2a5df8">.</tspan></text>
      <path d="M168,99.337a83.177,83.177,0,0,0-97.377-81.9l.028,110.592,26.931-21.813c10.579-8.66,6.088-17-9.625-16.992V82.806l64.133-.016,0,6.413s-21.164,1.288-33.667,11.553L91.173,123.209l42.892,43.136A83,83,0,0,0,168,99.337" style="fill: #1e1e1e"/>
      <path d="M74.5,136.361l-3.847,3.208,0,5.772c.007,27.254,3.022,35.28,16.92,37.072a82.806,82.806,0,0,0,26.527-5.241Z" style="fill: #1e1e1e"/>
      <path d="M0,99.337c0,31.528,19.3,58.957,45.171,73.046,2.107-5.665,2.72-14.225,2.717-27.036L47.862,44.015a154.182,154.182,0,0,0-.851-18.7C20.14,39.09,0,67.066,0,99.337" style="fill: #1e1e1e"/>
    </g>
  </g>
</svg>
