<svg xmlns="http://www.w3.org/2000/svg" viewBox="0 0 773.28 177.27">
  <title>logo-text-white_1</title>
  <g id="Layer_2" data-name="Layer 2">
    <g id="Layer_1-2" data-name="Layer 1">
      <g>
        <path d="M264.64,0h10.152V75.873H264.64V71.291a18.858,18.858,0,0,1-13.522,5.84A19.25,19.25,0,0,1,236.2,70.572q-5.886-6.693-5.885-16.711,0-9.792,5.885-16.351a18.776,18.776,0,0,1,14.69-6.6q7.681,0,13.746,6.289ZM240.651,53.861a15.235,15.235,0,0,0,3.37,10.243,11.03,11.03,0,0,0,8.714,4,11.6,11.6,0,0,0,9.075-3.864,14.964,14.964,0,0,0,3.459-10.152,14.966,14.966,0,0,0-3.459-10.152,11.438,11.438,0,0,0-8.985-3.909,11.176,11.176,0,0,0-8.715,3.954A14.572,14.572,0,0,0,240.651,53.861Z" style="fill: #fff"/>
        <path d="M327.4,56.377H296.04a13.29,13.29,0,0,0,3.5,8.58A10.68,10.68,0,0,0,307.5,68.1a10.341,10.341,0,0,0,6.244-1.8,25.579,25.579,0,0,0,5.526-6.649l8.535,4.762a34,34,0,0,1-4.178,5.772,22.235,22.235,0,0,1-4.717,3.954,18.917,18.917,0,0,1-5.435,2.268,26.483,26.483,0,0,1-6.334.719q-9.8,0-15.723-6.289-5.93-6.335-5.93-16.8,0-10.377,5.75-16.8,5.8-6.333,15.364-6.334,9.657,0,15.273,6.155,5.57,6.11,5.57,16.935Zm-10.377-8.266q-2.113-8.085-10.2-8.086a10.48,10.48,0,0,0-3.459.562A9.922,9.922,0,0,0,300.42,42.2a10.253,10.253,0,0,0-2.269,2.538,11.785,11.785,0,0,0-1.437,3.369Z" style="fill: #fff"/>
      </g>
      <g>
        <path d="M245.493,98v46.27l14.24-14.151H273.3l-19,18.373,20.394,25.381H261.575L247.11,155.41l-1.617,1.617v16.846H235.386V98Z" style="fill: #fff"/>
        <path d="M291.313,98v75.873H281.206V98Z" style="fill: #fff"/>
        <path d="M336.37,130.119h10.152v43.754H336.37v-4.582q-6.245,5.841-13.432,5.84a19.348,19.348,0,0,1-15-6.559q-5.886-6.693-5.885-16.711,0-9.837,5.885-16.4a18.968,18.968,0,0,1,14.734-6.559q7.637,0,13.7,6.289Zm-23.988,21.742a15.24,15.24,0,0,0,3.369,10.243,11.033,11.033,0,0,0,8.715,4,11.6,11.6,0,0,0,9.074-3.864,16.627,16.627,0,0,0,0-20.3,11.437,11.437,0,0,0-8.984-3.909,11.174,11.174,0,0,0-8.715,3.954A14.567,14.567,0,0,0,312.382,151.861Z" style="fill: #fff"/>
        <path d="M369.388,130.119V155.23q0,10.874,8.58,10.872t8.58-10.872V130.119h10.107v25.336a28.2,28.2,0,0,1-1.3,9.074A15.24,15.24,0,0,1,391,170.684q-5.121,4.446-13.027,4.447-7.862,0-12.983-4.447a15.485,15.485,0,0,1-4.447-6.155q-1.259-3.054-1.258-9.074V130.119Z" style="fill: #fff"/>
        <path d="M419.835,139.553v34.32H409.728v-34.32h-4.313v-9.434h4.313V114.082h10.107v16.037H427.7v9.434Z" style="fill: #fff"/>
        <path d="M475.224,154.377H443.868a13.29,13.29,0,0,0,3.5,8.58,10.68,10.68,0,0,0,7.951,3.145,10.341,10.341,0,0,0,6.244-1.8,25.559,25.559,0,0,0,5.526-6.649l8.535,4.762a33.946,33.946,0,0,1-4.178,5.772,22.235,22.235,0,0,1-4.717,3.954,18.917,18.917,0,0,1-5.435,2.268,26.477,26.477,0,0,1-6.334.719q-9.793,0-15.723-6.289-5.929-6.335-5.929-16.8,0-10.377,5.75-16.8,5.794-6.333,15.363-6.334,9.657,0,15.273,6.155,5.57,6.109,5.571,16.935Zm-10.377-8.266q-2.113-8.085-10.2-8.086a10.485,10.485,0,0,0-3.459.562,9.922,9.922,0,0,0-2.942,1.617,10.253,10.253,0,0,0-2.269,2.538,11.813,11.813,0,0,0-1.437,3.369Z" style="fill: #fff"/>
        <path d="M486.274,130.119h10.108v3.908a19.314,19.314,0,0,1,4.941-4,11.339,11.339,0,0,1,5.211-1.123,16.331,16.331,0,0,1,8.356,2.606l-4.627,9.254a9.657,9.657,0,0,0-5.616-2.067q-8.265,0-8.265,12.489v22.685H486.274Z" style="fill: #fff"/>
        <path d="M530.792,98V135.2q6.065-6.288,13.746-6.289a18.91,18.91,0,0,1,14.734,6.6q5.885,6.56,5.885,16.351,0,10.108-5.929,16.711a19.117,19.117,0,0,1-14.87,6.559,18.9,18.9,0,0,1-13.566-5.84v4.582H520.685V98Zm24.033,54.311a15.114,15.114,0,0,0-3.414-10.243,10.941,10.941,0,0,0-8.67-4.043,11.621,11.621,0,0,0-9.074,3.909A14.51,14.51,0,0,0,530.208,152q0,6.379,3.414,10.2a11.349,11.349,0,0,0,8.984,3.909,11.141,11.141,0,0,0,8.715-3.909A14.349,14.349,0,0,0,554.825,152.311Z" style="fill: #fff"/>
        <path d="M573.782,151.682a21.742,21.742,0,0,1,6.783-16.127,23.929,23.929,0,0,1,33.153.045,23.427,23.427,0,0,1-.045,32.927,23.184,23.184,0,0,1-16.756,6.6,22.231,22.231,0,0,1-16.486-6.738A22.657,22.657,0,0,1,573.782,151.682Zm10.332.179q0,6.56,3.5,10.377a13.614,13.614,0,0,0,18.957.045q3.548-3.817,3.549-10.2t-3.549-10.2a13.447,13.447,0,0,0-18.867,0A14.059,14.059,0,0,0,584.114,151.861Z" style="fill: #fff"/>
        <path d="M629.081,151.682a21.742,21.742,0,0,1,6.783-16.127,23.929,23.929,0,0,1,33.153.045,23.427,23.427,0,0,1-.045,32.927,23.184,23.184,0,0,1-16.756,6.6,22.235,22.235,0,0,1-16.487-6.738A22.66,22.66,0,0,1,629.081,151.682Zm10.332.179q0,6.56,3.5,10.377a13.614,13.614,0,0,0,18.957.045q3.548-3.817,3.549-10.2t-3.549-10.2a13.447,13.447,0,0,0-18.867,0A14.054,14.054,0,0,0,639.413,151.861Z" style="fill: #fff"/>
        <path d="M686.446,130.119h10.108v4.043a21.118,21.118,0,0,1,4.986-4.133,12.105,12.105,0,0,1,5.525-1.123,13.411,13.411,0,0,1,11.725,6.469,15.175,15.175,0,0,1,12.893-6.469q14.778,0,14.779,17.924v27.043H736.31v-24.3q0-6.288-1.528-8.894a5.537,5.537,0,0,0-5.166-2.651,6.592,6.592,0,0,0-6.087,3.145q-1.909,3.145-1.909,10.107v22.6H711.468V149.705q0-11.679-6.739-11.68a6.754,6.754,0,0,0-6.221,3.19q-1.955,3.191-1.954,10.062v22.6H686.446Z" style="fill: #fff"/>
        <path d="M760.792,168.842a6.244,6.244,0,0,1,12.488.045,6.059,6.059,0,0,1-1.842,4.447,6.345,6.345,0,0,1-8.849,0A6.093,6.093,0,0,1,760.792,168.842Z" style="fill: #fff"/>
      </g>
      <path d="M168,94.193a83.172,83.172,0,0,0-97.377-81.9l.028,110.591,26.931-21.812c10.579-8.661,6.088-17-9.625-16.993V77.663l64.133-.017,0,6.414s-21.164,1.287-33.667,11.552L91.173,118.066,134.065,161.2A83,83,0,0,0,168,94.193" style="fill: #fff"/>
      <path d="M74.5,131.217l-3.847,3.208,0,5.772c.007,27.254,3.022,35.28,16.92,37.073a82.833,82.833,0,0,0,26.527-5.242Z" style="fill: #fff"/>
      <path d="M0,94.193c0,31.529,19.3,58.957,45.171,73.047,2.107-5.665,2.72-14.225,2.717-27.037L47.862,38.872a154.189,154.189,0,0,0-.851-18.7C20.14,33.946,0,61.922,0,94.193" style="fill: #fff"/>
    </g>
  </g>
</svg>
