<svg xmlns="http://www.w3.org/2000/svg" viewBox="0 0 773.2803 177.356"><defs><style>.cls-1{isolation:isolate;}.cls-2{fill:#1e1e1e;}</style></defs><title>logo-text-black</title><g id="Layer_2" data-name="Layer 2"><g id="Layer_1-2" data-name="Layer 1"><g id="Layer_1-2-2" data-name="Layer 1-2"><g class="cls-1"><path class="cls-2" d="M264.64,0H274.792V75.873H264.64V71.291a18.8569,18.8569,0,0,1-13.5214,5.84,19.2493,19.2493,0,0,1-14.9141-6.5586q-5.8857-6.6928-5.8848-16.711,0-9.7925,5.8848-16.3515a18.7768,18.7768,0,0,1,14.6895-6.6036q7.6815,0,13.746,6.2891ZM240.6514,53.8613a15.2375,15.2375,0,0,0,3.3691,10.2422,11.0326,11.0326,0,0,0,8.7149,3.9981,11.5986,11.5986,0,0,0,9.0742-3.8633,14.9609,14.9609,0,0,0,3.459-10.1524,14.9642,14.9642,0,0,0-3.459-10.1523,11.4374,11.4374,0,0,0-8.9844-3.9082,11.1746,11.1746,0,0,0-8.7148,3.9531A14.5709,14.5709,0,0,0,240.6514,53.8613Z"/><path class="cls-2" d="M327.3955,56.377H296.04a13.2858,13.2858,0,0,0,3.5039,8.58,10.6816,10.6816,0,0,0,7.9512,3.1446,10.3418,10.3418,0,0,0,6.2442-1.7969,25.5593,25.5593,0,0,0,5.5253-6.6485L327.8,64.418a33.9977,33.9977,0,0,1-4.1777,5.7724,22.22,22.22,0,0,1-4.7168,3.9532,18.9365,18.9365,0,0,1-5.4356,2.2685,26.5015,26.5015,0,0,1-6.334.7188q-9.7939,0-15.7226-6.2891-5.93-6.3341-5.93-16.8008,0-10.377,5.75-16.8008,5.7949-6.3339,15.3633-6.334,9.6577,0,15.2734,6.1543,5.5694,6.11,5.57,16.9356Zm-10.3769-8.2657q-2.1123-8.0859-10.1973-8.0859a10.4786,10.4786,0,0,0-3.459.5615,9.9186,9.9186,0,0,0-2.9424,1.6172,10.25,10.25,0,0,0-2.2685,2.5381,11.7862,11.7862,0,0,0-1.4375,3.3691Z"/></g><g class="cls-1"><path class="cls-2" d="M245.4932,98v46.269l14.24-14.15H273.3l-19.0019,18.373,20.3945,25.3809H261.5752L247.11,155.41l-1.6172,1.6172v16.8457H235.3857V98Z"/><path class="cls-2" d="M291.3135,98v75.8726H281.2061V98Z"/><path class="cls-2" d="M336.37,130.1187h10.1524v43.7539H336.37v-4.5821q-6.2446,5.84-13.4316,5.84a19.3486,19.3486,0,0,1-15.0039-6.5586q-5.8859-6.6928-5.8848-16.711,0-9.8379,5.8848-16.3964a18.9691,18.9691,0,0,1,14.7343-6.5586q7.6363,0,13.7012,6.289Zm-23.9883,21.7421a15.2375,15.2375,0,0,0,3.3692,10.2422,11.0324,11.0324,0,0,0,8.7148,3.9981,11.5983,11.5983,0,0,0,9.0742-3.8633,16.6283,16.6283,0,0,0,0-20.3047,11.437,11.437,0,0,0-8.9843-3.9082,11.1749,11.1749,0,0,0-8.7149,3.9531A14.5714,14.5714,0,0,0,312.3818,151.8608Z"/><path class="cls-2" d="M369.3877,130.1187V155.23q0,10.872,8.58,10.8711t8.58-10.8711V130.1187h10.1074v25.3359a28.1944,28.1944,0,0,1-1.3028,9.0742,15.2384,15.2384,0,0,1-4.3574,6.1543q-5.121,4.4472-13.0273,4.4473-7.8618,0-12.9824-4.4473a15.4765,15.4765,0,0,1-4.4473-6.1543q-1.2583-3.0541-1.2578-9.0742V130.1187Z"/></g><g class="cls-1"><path class="cls-2" d="M419.835,139.5522v34.32H409.7275v-34.32H405.415v-9.4335h4.3125V114.0815H419.835v16.0372h7.8613v9.4335Z"/></g><g class="cls-1"><path class="cls-2" d="M475.2236,154.3765H443.8682a13.2853,13.2853,0,0,0,3.5039,8.58,10.6814,10.6814,0,0,0,7.9511,3.1446,10.3416,10.3416,0,0,0,6.2442-1.7969,25.5582,25.5582,0,0,0,5.5254-6.6484l8.5351,4.7617A33.9923,33.9923,0,0,1,471.45,168.19a22.2178,22.2178,0,0,1-4.7168,3.9532,18.9359,18.9359,0,0,1-5.4355,2.2685,26.5021,26.5021,0,0,1-6.334.7188q-9.794,0-15.7227-6.2891-5.93-6.3339-5.93-16.8008,0-10.3768,5.75-16.8008,5.7949-6.3339,15.3633-6.3339,9.6577,0,15.2734,6.1543,5.5693,6.11,5.57,16.9355Zm-10.3769-8.2657q-2.1123-8.0859-10.1973-8.0859a10.479,10.479,0,0,0-3.459.5615,9.92,9.92,0,0,0-2.9424,1.6172,10.2521,10.2521,0,0,0-2.2685,2.5381,11.7862,11.7862,0,0,0-1.4375,3.3691Z"/><path class="cls-2" d="M486.2744,130.1187h10.1074v3.9082a19.3046,19.3046,0,0,1,4.9414-3.9981,11.3382,11.3382,0,0,1,5.211-1.123,16.3325,16.3325,0,0,1,8.3554,2.6054l-4.6269,9.2539a9.657,9.657,0,0,0-5.6152-2.0664q-8.2662,0-8.2657,12.4883v22.6856H486.2744Z"/><path class="cls-2" d="M530.792,98v37.1948q6.0645-6.2886,13.7461-6.289a18.9145,18.9145,0,0,1,14.7344,6.6035q5.8842,6.5595,5.8847,16.3515,0,10.1074-5.93,16.711a19.1152,19.1152,0,0,1-14.8691,6.5586,18.9033,18.9033,0,0,1-13.5664-5.84v4.5821H520.6846V98Zm24.0332,54.31a15.1156,15.1156,0,0,0-3.4141-10.2422,10.94,10.94,0,0,0-8.67-4.043,11.6224,11.6224,0,0,0-9.0742,3.9082,14.5135,14.5135,0,0,0-3.459,10.0625q0,6.3794,3.4141,10.1973a11.35,11.35,0,0,0,8.9843,3.9082,11.1429,11.1429,0,0,0,8.7149-3.9082A14.3522,14.3522,0,0,0,554.8252,152.31Z"/><path class="cls-2" d="M573.7822,151.6812a21.7421,21.7421,0,0,1,6.7832-16.127,23.93,23.93,0,0,1,33.1524.0449,23.427,23.427,0,0,1-.0449,32.9278A23.186,23.186,0,0,1,596.917,175.13a22.2325,22.2325,0,0,1-16.4863-6.7383A22.6576,22.6576,0,0,1,573.7822,151.6812Zm10.3321.18q0,6.56,3.5039,10.377a13.6161,13.6161,0,0,0,18.957.0449q3.5478-3.8174,3.5488-10.1973,0-6.3779-3.5488-10.1972a13.4492,13.4492,0,0,0-18.8672,0A14.0579,14.0579,0,0,0,584.1143,151.8608Z"/><path class="cls-2" d="M629.0811,151.6812a21.7417,21.7417,0,0,1,6.7832-16.127,23.93,23.93,0,0,1,33.1523.0449,23.427,23.427,0,0,1-.0449,32.9278,23.186,23.186,0,0,1-16.7559,6.6035,22.2325,22.2325,0,0,1-16.4863-6.7383A22.6579,22.6579,0,0,1,629.0811,151.6812Zm10.332.18q0,6.56,3.5039,10.377a13.6161,13.6161,0,0,0,18.957.0449q3.5479-3.8174,3.5489-10.1973,0-6.3779-3.5489-10.1972a13.4492,13.4492,0,0,0-18.8672,0A14.0584,14.0584,0,0,0,639.4131,151.8608Z"/><path class="cls-2" d="M686.4463,130.1187h10.1074v4.0429a21.1171,21.1171,0,0,1,4.9863-4.1328,12.1039,12.1039,0,0,1,5.5254-1.123,13.4121,13.4121,0,0,1,11.7246,6.4687,15.1754,15.1754,0,0,1,12.8926-6.4687q14.7789,0,14.7793,17.9238v27.043H736.31V149.57q0-6.2886-1.5274-8.8945a5.5381,5.5381,0,0,0-5.166-2.65,6.591,6.591,0,0,0-6.0869,3.1445q-1.91,3.145-1.9092,10.1075v22.5957H711.4678v-24.168q0-11.6792-6.7383-11.68a6.7538,6.7538,0,0,0-6.2217,3.19q-1.954,3.19-1.9541,10.0625v22.5957H686.4463Z"/></g><g class="cls-1"><path d="M760.792,168.8413a6.2444,6.2444,0,0,1,12.4883.0449,6.06,6.06,0,0,1-1.8418,4.4473,6.3463,6.3463,0,0,1-8.85,0A6.0924,6.0924,0,0,1,760.792,168.8413Z"/></g><path class="cls-2" d="M168,94.156a83.2187,83.2187,0,0,0-97.3-81.9v110.6l26.9-21.8c10.6-8.7,6.1-17-9.6-17v-6.4h64.1v6.4s-21.2,1.3-33.7,11.6l-27.2,22.5,42.9,43.1a83.3618,83.3618,0,0,0,33.9-67.1"/><path class="cls-2" d="M74.5,131.256l-3.8,3.2v5.8c0,27.3,3,35.3,16.9,37.1a85.4425,85.4425,0,0,0,26.5-5.2Z"/><path class="cls-2" d="M0,94.156c0,31.5,19.3,59,45.2,73,2.1-5.7,2.7-14.2,2.7-27V38.856a146.36,146.36,0,0,0-.9-18.7c-26.9,13.8-47,41.8-47,74"/></g></g></g></svg>