<?xml version="1.0" encoding="utf-8"?>
<!-- Generator: Adobe Illustrator 23.0.2, SVG Export Plug-In . SVG Version: 6.00 Build 0)  -->
<svg version="1.1" id="Layer_1" xmlns="http://www.w3.org/2000/svg" xmlns:xlink="http://www.w3.org/1999/xlink" x="0px" y="0px"
	 viewBox="0 0 781.2 205.6" style="enable-background:new 0 0 781.2 205.6;" xml:space="preserve">
<style type="text/css">
	.st0{fill:#1E1E1E;}
	.st1{font-family:'Futura-Medium';}
	.st2{font-size:92px;}
</style>
<title>logo-text-black</title>
<g>
	<g id="Layer_1-2">
		<text transform="matrix(1 0 0 1 226.007 81.017)" class="st0 st1 st2">de</text>
		<text transform="matrix(1 0 0 1 229.007 179.017)" class="st0 st1 st2">klau</text>
		<text transform="matrix(1 0 0 1 403.034 179.017)" class="st0 st1 st2">t</text>
		<text transform="matrix(1 0 0 1 428.999 179.017)" class="st0 st1 st2">erboom</text>
		<text transform="matrix(1 0 0 1 752.8411 179.017)" class="st1 st2">.</text>
		<path class="st0" d="M168,99.3c0-45.9-37.3-83.2-83.2-83.1c-4.7,0-9.5,0.4-14.1,1.2l0,110.6l26.9-21.8c10.6-8.7,6.1-17-9.6-17
			v-6.4l64.1,0v6.4c0,0-21.2,1.3-33.7,11.6l-27.2,22.5l42.9,43.1C155.4,150.7,168,125.8,168,99.3"/>
		<path class="st0" d="M74.5,136.4l-3.8,3.2v5.8c0,27.3,3,35.3,16.9,37.1c9.1-0.3,18-2.1,26.5-5.2L74.5,136.4z"/>
		<path class="st0" d="M0,99.3c0,31.5,19.3,59,45.2,73c2.1-5.7,2.7-14.2,2.7-27l0-101.3c0.1-6.2-0.2-12.5-0.9-18.7
			C20.1,39.1,0,67.1,0,99.3"/>
	</g>
</g>
</svg>
