<svg viewBox="0 0 126 110" fill="none" xmlns="http://www.w3.org/2000/svg"><ellipse cx="69.163" cy="18.967" rx="18.489" ry="18.489" fill="#FAF2E8"/><path d="M124.164 50.868c-.161-.572-.688-.84-1.205-.83-.043-.236-.188-.447-.449-.488l.098.022c-.184-.182-.411-.23-.633-.22-1.904-1.172-5.186-1.089-7.642-.772-.227-2.595-2.602-5.184-4.231-6.901-1.59-1.675-3.332-2.847-5.27-3.775-1.173-1.474-1.58-2.97-1.934-4.875a2.874 2.874 0 0 1-.026-.803 349.692 349.692 0 0 0-1.591-5.3c-1.146-3.717-.81-9.45-6.307-9.064-3.635.256-7.75 4.019-9.72 6.88-1.125 1.633-2.625 3.694-3.755 5.885a7.683 7.683 0 0 0-.562-.003c-.443.014-.904.021-1.36.072.92-4.123 2.701-6.297 2.027-10.78-.53-3.515-1.689-7.178-4.625-9.396C71.184 6.144 63.12 6.26 56.44 8.266c-6.75 2.026-11.577 8.105-9.697 15.286.052.193.105.491.167.864-.524.28-.938.728-1.085 1.296C32.486 25.51 24 44.066 21.181 54.612a34.935 34.935 0 0 0-.945 5.02c-1.804.84-3.948.937-6.016.394-1.934-.51-3.137-1.509-3.762-2.744a5.602 5.602 0 0 0 2.287-1.155c2.73-2.324 5.826-7.748 1.952-10.53-3.034-2.182-5.825.495-7.547 2.945A12.576 12.576 0 0 0 5.577 51.6a9.65 9.65 0 0 1-.826-.677c-1.59-1.473-1.122-8.825 1.666-8.711 1.961.079 1.886-2.81 0-2.999-7.58-.762-7.798 11.657-3.995 15.57.756.779 1.73 1.437 2.798 1.91.178.744.443 1.48.869 2.19 2.572 4.3 8.955 6.851 13.961 5.94.42 10.356 5.548 19.802 12.32 27.848.424-.004.846.026 1.269.038 1.392 2.268 4.118 3.935 7.152 4.978.038 2.298.848 4.641 1.813 6.679 1.55 3.278 4.249 3.421 7.501 3.591 3.285.171 5.896 1.328 9.08-.141 2.823-1.303 3.297-5.592 3.461-8.438 1.276.256 2.638.241 3.969.147 3.462-.241 7.424.574 10.923.022-1.037 2.572-1.538 5.581 1.326 7.2 1.617.91 3.254 1.061 5.085 1.079 2.826.028 5.056.136 7.734.993 4.02 1.29 5.276-2.695 5.866-5.692.33-1.671 1.133-4.078 1.101-6.148.665-.321 1.316-.778 1.959-1.281 2.245-.874 4.439-2.343 5.508-3.257 2.303-1.972 8.025-8.11 8.611-12.733.285-.623.476-1.315.704-1.937 2.794-.264 5.885-1.108 7.584-2.103 1.933-1.131 2.364-3.2 2.228-5.317.313-1.383.386-2.886.566-4.263.618-4.755-.353-10.62-1.646-15.22zm-60.057-39.29c4.754-.27 10.548 1.033 12.115 6.102 1.223 3.97.35 9.453-1.484 12.013-.342.48-.342 1.353 0 1.833.014.019.028.027.037.045-.03.059-.073.116-.107.171-.14-.004-.28.002-.418.04-.64.18-1.07.4-1.69.705-.285.14-.386.473-.335.778-5.071-.055-10.338-.217-15.415.307-1.069-.976-2.24-1.857-3.388-2.702a4.611 4.611 0 0 1-1.256-1.386c-.007-.082-.007-.175-.025-.253a44.427 44.427 0 0 1-.455-2.772c.45-.42.267-1.17-.21-1.536l-.008-.056c.126-1.66.407-3.365.272-4.875a.876.876 0 0 0-.59-.772c1.007-5.547 7.534-7.333 12.957-7.642zM120.06 70.89c-.323.544-.344 1.158-.17 1.718-.444.002-.837-.096-1.242-.23a7.221 7.221 0 0 1-2.433-.053c-.516-.56-1.462-.787-2.1-.371-1.477.965-2.095 2.576-2.523 4.223a9.987 9.987 0 0 1-.2.663c-.583.7-.959 1.52-1.413 2.45-.988 2.036-2.198 3.78-3.42 5.685-.218.34-.453.637-.681.95-1.471 1.587-2.826 3.057-4.314 4.275-.255.185-.489.378-.759.56-.231.158-.65.462-1.149.797-1.132.672-2.401 1.168-3.857 1.477-.052-.022-.123-.018-.167-.05-.603-.425-1.423.083-1.537.736-.263.258-.51.54-.712.88-.481.82-.16 1.798.601 2.295.011.008.025.011.035.017-.194.737-.343 1.483-.527 2.14-.248.9-.214 1.929-.394 2.851a23.61 23.61 0 0 1-.4 1.622c-.499 1.876-.202.628-.61.505-2.47-.741-4.55-.781-7.142-.762-.97.01-3.48.498-3.899-.802-.482-1.491.262-3.241-.133-4.834a1.04 1.04 0 0 0-.11-.244c.116-.902-.347-1.863-1.423-2.237-3.122-1.068-7.067-.395-10.343-.362-2.302.023-5.753 1.108-7.881.056-1.555-.772-3.035.854-2.287 2.237-.495.381-.86.957-.93 1.736-.107 1.232-.31 3.797-1.092 4.767-.926 1.148-4.735-.135-5.956-.277a20.51 20.51 0 0 0-2.326-.122c.918-.192 1.834-.379 2.72-.64 1.323-.393 1.381-2.366 0-2.73-1.653-.437-3.733-.389-5.543.195a10.39 10.39 0 0 1-.5-1.264c2.49.358 4.865.317 6.583-.148 2.348-.642 2.228-3.93 0-4.62-1.328-.418-2.753-.544-4.189-.64.862-.358 1.685-.765 2.448-1.375.877-.701-.096-1.892-1-1.715-1.351.267-2.722.258-4.03.757-.274.107-.602.25-.94.425a.703.703 0 0 0-.294-.805c-.579-.381-1.282-.552-1.987-.627a2 2 0 0 1 .352-.265c.285-.176.595-.325.894-.474.026-.012.04-.022.054-.028.021-.008.05-.016.098-.034.054-.018.113-.032.168-.05 1.32-.019 1.617-2.507-.099-2.514-1.788-.012-4.57 1.226-4.463 3.313-.448.004-.9.006-1.348.032a20.232 20.232 0 0 1-2.212-2.34c-.25-.305-.546-.445-.846-.474a46.842 46.842 0 0 1-1.162-1.564c.031.005.056.022.092.026 1.362.115 2.6-.04 3.937-.283 1.19-.218 2.448-.228 3.356-1.126.294-.29.32-.828 0-1.113-1.844-1.67-5.157-.003-7.293.274-.582.072-.922.442-1.034.86a46.69 46.69 0 0 1-2.26-3.706c1.937-.36 3.866-.976 5.72-1.456 1.511-.395 1.118-2.558-.357-2.634-2.314-.12-4.446 1.006-6.688 1.45a39.64 39.64 0 0 1-1.625-4.079c1.922-.041 3.822-.405 5.77-.53 1.79-.118 1.812-2.894 0-2.804-2.162.103-4.342.504-6.485.935a35.546 35.546 0 0 1-.931-5.062c1.04-.279 2.243-.212 3.24-.328 1.438-.165 2.844-.29 4.285-.424a1.308 1.308 0 0 0 0-2.616c-1.883-.179-3.469.228-5.3.377-.838.066-1.64.136-2.408.284a31.872 31.872 0 0 1-.003-2.006c.741-1.072 1.247-2.416 1.428-4.065.28-.051.56-.09.842-.15 1.146-.235 2.708-.202 3.647-.922.45-.343.483-.921 0-1.261-.895-.633-1.947-.386-2.973-.23-.734.112-1.453.25-2.177.358.183-.816.387-1.629.631-2.438a.834.834 0 0 0 .275-.064c2.104-.872 4.348-.958 6.496-1.587 1.185-.348 1.383-2.375 0-2.594-1.77-.281-3.794.248-5.58.995-.014-.005-.028 0-.04-.006a53.572 53.572 0 0 1 2.406-5.16c.384.196.853.24 1.34.003 1.896-.917 3.817-1.217 5.864-1.577 1.652-.291 1.152-2.725-.378-2.798-1.627-.08-3.3.327-4.872.916.12-.2.235-.406.355-.601 3.814-6.266 8.702-8.955 15.087-11.55.317 1.65.747 3.357 1.349 4.67.308 1.488.76 3.086 1.713 4.194.294.34.612.542.931.66.082.398.433.736.8.845 2.77.832 5.678.575 8.533.431 3.494-.177 6.994.031 10.482-.146 2.304-.116 3.5-1.505 4.086-3.277.833-.973 1.54-2.106 1.817-3.316.09-.009.175-.014.258-.03.012.019.017.039.026.057.193.328.474.522.78.614.02.007.034.02.053.028.539.217 1.135.276 1.727.298-.331 1.286-.425 2.558-.127 3.77.27 1.098 1.921 1.354 2.453.319.06-.129.129-.251.21-.368a.592.592 0 0 0 0-.618c.252.394.788-.726 1.371-1.592.856-1.268 1.602-2.661 2.234-4.05 1.377-3.024 3.796-5.505 6.465-7.376 1.594-1.118 2.745-1.407 3.163 1.17.365 2.26 1.411 4.574 1.547 6.84.127 2.088 1.115 5.207 2.696 6.684.084.08.182.136.278.197 1.355 1.865 3.925 2.975 5.5 4.615 1.673 1.744 2.696 3.497 3.72 5.466.012 1.591.068 3.751 1.531 4.442.828.39 1.703.512 2.59.539 1.011-.587 2.199-.961 3.528-1.053 1.312-.089 2.751.2 4.128.694-.35 5.69 1.488 12.404-1.419 17.274z" fill="#000"/><path d="M61.427 25.509c.228.012.517 0 .83-.019.154.523.303 1.042.444 1.569-.261.026-.52.052-.76.074-1.531.149-2.845.396-4.365.729-1.534.336-2.815-.088-3.848 1.22-.353.449-.36.92 0 1.366.978 1.216 2.303 1.082 3.775.866 2.012-.295 3.998-.627 6.01-.93.046.232.108.462.154.69.344 1.682 3.042 1.682 3.387 0 .095-.466.11-.935.091-1.396 2.561-.672 5.005-1.817 6.42-4.106.436-.704.209-1.467-.265-2.062-1.648-2.07-5.365-1.842-8.422-1.538a68.847 68.847 0 0 0-1.74-4.143c1.677-.409 3.22.317 4.941.008.593-.107.744-1.086.175-1.335-1.666-.726-2.873-1.565-4.718-1.48-.514.024-1.03.1-1.544.21-.247-.573-.501-1.143-.735-1.732-.32-.818-1.688-1.054-1.901 0a7.97 7.97 0 0 0-.07 2.601c-.538.216-1.062.446-1.566.667-2.331 1.032-5.695 3.319-4.063 6.256 1.284 2.31 5.536 2.379 7.77 2.485zm7.878-.334c-.819.572-1.824.962-2.877 1.244-.145-.429-.298-.853-.448-1.276 1.194-.093 2.385-.129 3.325.032zm-12.09-4.62c.702-.682 1.719-1.219 2.774-1.654.342.963.739 1.927 1.092 2.927.046.13.088.27.134.4-1.877 0-5.523-.198-4-1.673zm35.651 29.71c-1.939 1.69-.807 5.218 1.966 5.218s3.905-3.527 1.965-5.218a2.434 2.434 0 0 0-3.931 0zm24.136 9.661c-.27 2.6-1.088 5.994-.187 8.507.542 1.52 2.412 1.423 2.989 0 .528-1.299.471-2.753.525-4.138.059-1.472.08-2.902-.05-4.369-.188-2.121-3.061-2.097-3.277 0z" fill="#000"/></svg>