<svg xmlns="http://www.w3.org/2000/svg" viewBox="0 0 56.88 53.04"><path fill-rule="evenodd" clip-rule="evenodd" d="M31.698 14.465c3.831.107 6.607-3.243 10.081-2.371 3.535.886 3.578 8.511 2.075 11.563-2.332 1.562-3.153-1.483-5.634-.89-3.637.871-4.79 10.717.593 11.268 2.954.301 2.882-2.469 6.523-2.076 1.193 2.723 1.967 6.906 1.483 10.377-8.542 4.176-19.283 5.949-31.134 7.414-1.787-3.416-2.265-7.256-2.668-12.453-.476-6.105-2.508-12.405-2.373-17.791 2.768-1.384 6.354-1.947 9.488-2.965.138-1.364-1.463-1.828-1.778-3.262C16.4 4.392 28.658-.157 33.18 6.757c.419 3.643-.075 5.456-1.482 7.708zm-8.897-9.783c-3.959 2.662-3.061 10.85 1.482 12.157-4.678.108-8.432 1.878-12.156 2.668 2.604 8.788 3.525 19.137 4.448 28.76 9.199-1.449 21.282-3.264 28.761-6.521-.599-2.662-.777-5.744-1.482-8.303-2.585 1.219-5.149 2.305-8.6 1.186-3.552-3.416-.626-10.053 2.077-12.453a7.346 7.346 0 013.558-.593c.958-.341 1.553 2.09 1.779.593.076-3.634-.508-6.608-1.482-9.191-4.284.206-8.392 2.582-11.268 2.372 4.152-4.924.415-13.842-7.117-10.675z"/></svg>