<svg xmlns="http://www.w3.org/2000/svg" viewBox="0 0 72.96 54"><path fill-rule="evenodd" clip-rule="evenodd" d="M47.266 18.058c.113.844-1.057.406-1.096 1.098-1.164-.574.457-2.196 1.096-1.098zm-3.656 1.829c-1.732 4.031-8.08 5.098-12.437 7.315-2.319 1.181-4.482 4.241-7.682 2.561 5.755-2.376 14.148-5.055 19.021-9.511.261-.993-1.725.262-1.465-.731.026-1.59 2.679-.513 2.563.366zm-6.584-.732c.429.059.308.667.366 1.097-.684.293-1.34.612-2.194.732-.563-1.781 1.34-1.098 1.828-1.829zM25.687 21.35c.591-.104.63.346 1.098.365-2.384 4.322-8.383 5.03-10.607 9.511-.63-3.906 7.771-5.649 9.509-9.876z"/><path fill-rule="evenodd" clip-rule="evenodd" d="M66.288 20.252c-1.951 7.071-7.644 10.403-12.437 14.632-12.175 4.721-28.34 16.203-42.795 9.509-.475-3.752-3.587-7.056-3.658-10.241-.129-5.732 8.328-11.812 13.534-14.631 6.919-3.747 14.226-5.692 19.386-8.414 6.031.94 11.483-5.201 19.02-2.926 4.202 1.27 5.896 6.578 6.95 12.071zm-28.165 8.779c3.604-1.465 8.462-2.916 13.535-5.852 5.421-3.138 15.066-9.229 6.582-13.168-9.623-.001-18.689 3.983-28.164 6.219-.249.726-1.113.836-1.463 1.463-3.308.703-7.267 2.406-10.973 5.487-2.709 2.251-7.467 7.063-6.95 9.876.535 2.912 4.586 2.964 6.95 2.925 8.883-3.005 19.272-7.173 27.8-11.704-1.752 2.272-5.109 2.937-7.317 4.754zm22.313-4.024c2.105-.934 4.261-5.335 2.193-8.047-1.889 1.653-5.24 5.805-2.193 8.047zm-8.048.367c.514 1.802 1.025 3.607 1.829 5.122 2.459-.834 4.488-2.096 5.12-4.757-1.293-.657-1.442-2.458-2.926-2.926-.823 1.371-2.84 1.549-4.023 2.561zm-8.047 3.657c.18 2.625 1.08 4.528 2.194 6.218 2.297-.994 4.473-2.11 6.219-3.656-1.145-1.417-.377-4.746-2.562-5.122-1.748 1.055-3.65 1.956-5.851 2.56zm-7.315 2.561c2.005-.684 5.471-1.837 5.487-3.293-1.71 1.218-4.68 1.173-5.487 3.293zm.366.731a57.04 57.04 0 012.193 5.853c2.025-.413 4.047-.831 5.122-2.195-1.317-1.608-1.165-4.688-2.561-6.217-1.112 1.325-3.27 1.605-4.754 2.559zm-8.048 2.195c1.698.034 5.244-1.038 6.219-2.926-2.372.676-4.54 1.557-6.219 2.926zm1.098.731c-.743 2.02 1.352 3.556 1.829 5.487 2.396-.287 4.427-.938 5.852-2.194-1.051-1.51-1.389-3.731-2.193-5.486-2.174.221-4.045 2.432-5.488 2.193zm-8.047 1.098c-.154 4.657 4.245 8.272 8.047 4.755-1.037-1.402-2.1-2.777-2.194-5.122-2.14-.959-3.524-.222-5.853.367zm-2.561 1.097c-.25 1.213-2.789.136-2.926 1.464.896 2.272 1.735 4.603 5.486 4.021-.894-1.786-1.028-4.333-2.56-5.485zm-3.292 5.485c-.139-1.934-1.289-2.855-1.828-4.388h-2.561c-.343 3.27 2.126 3.727 4.389 4.388z"/></svg>