<svg width="1600" height="1600" viewBox="0 0 1200 1200" xmlns="http://www.w3.org/2000/svg"><path d="M602.53 558.32c-6.316 48-12.633 92.211-18.949 136.42 40.422 16.422 77.051 31.578 113.68 45.473 20.211 7.578 41.684 11.367 61.895 17.684 7.578 2.527 18.949 10.105 18.949 16.422s-7.578 17.684-15.156 21.473c-49.262 27.789-99.789 55.578-149.05 83.367-6.316 3.79-10.105 15.156-10.105 22.738 1.262 12.633 7.578 25.262 10.105 37.895 10.105 36.633 42.949 40.422 70.738 45.473 31.578 6.316 63.156 2.527 94.738 6.316 49.262 6.317 99.789 7.578 145.26 22.738 44.211 13.895 74.527 49.262 85.895 97.262 2.527 13.895 6.316 27.79 11.367 40.422 12.633 37.895 10.105 42.95-32.844 44.211-1.262-5.05-5.05-11.367-5.05-17.684 0-51.789-25.263-93.473-65.685-118.74-32.844-20.21-75.789-24-114.95-30.316-63.156-8.843-126.32-11.367-189.47-20.21-12.633-1.262-27.789-16.423-32.844-29.052-12.633-31.578-24-65.684-12.633-101.05 3.79-12.633 12.633-26.527 24-32.844 37.895-21.473 78.316-39.156 125.05-60.633-56.844-18.949-103.58-35.367-151.58-50.527-22.738-7.578-29.05-21.473-26.527-42.949 5.051-31.578 8.844-64.422 13.895-98.527-21.473-5.05-46.738-8.843-69.473-16.422-27.789-8.843-35.367-32.844-17.684-56.844 12.633-16.422 29.051-31.578 45.473-44.21 18.95-13.896 42.95-22.739 61.895-37.896 13.895-10.105 25.262-21.473 21.473-44.21-2.527-15.157 5.051-32.845 10.105-48 21.473-72 34.105-149.05 93.473-203.37 37.895-35.368 77.051-70.739 122.53-94.739 32.844-17.684 75.79-17.684 114.95-24 5.051-1.261 27.79 6.317 27.79 10.105 1.26 5.051-3.79 16.422-8.845 21.473-5.05 5.051-25.262 5.051-32.844 6.317-63.156 5.05-114.95 32.844-164.21 75.789-45.473 39.156-70.738 85.895-88.422 140.21-11.367 36.633-20.21 74.527-25.262 112.42-7.578 61.895-48 93.473-98.527 120-13.895 7.578-24 20.21-36.633 30.316 13.895 5.05 29.051 10.105 42.95 12.633 16.425 2.531 30.32 2.531 50.53 5.058zm-319.58 64.42c12.633-22.738 30.316-27.789 49.262-18.949 34.105 16.422 66.949 34.105 98.527 53.051 8.844 5.05 15.156 15.156 18.949 24 2.527 5.05 0 15.156-3.79 20.211-2.526 2.527-12.632 2.527-16.421 1.262-49.266-26.523-97.266-53.051-146.53-79.574zM312 989.05c-11.367-27.789-1.262-45.473 18.949-54.316 35.367-15.156 72-27.789 108.63-39.156 6.316-1.262 13.895 5.05 21.473 7.578-3.79 7.578-3.79 20.211-10.105 22.738-45.477 21.473-90.949 41.684-138.95 63.156zm-64.42-156.63c-1.262-3.79-7.578-13.895-5.05-16.422 10.104-10.105 21.472-21.473 34.104-24 30.316-6.316 61.895-11.367 113.68-16.422 8.844-1.262 18.95 8.844 29.051 13.895-7.578 7.578-13.895 21.473-22.738 24-47.996 6.316-94.734 11.371-149.05 18.949z"/></svg>