<svg xmlns="http://www.w3.org/2000/svg" viewBox="0 0 67.201 65.76"><path fill-rule="evenodd" clip-rule="evenodd" d="M58.77 25.727c1.927.436 1.604-1.316 3.07-1.328 3.311 2.484-.929 5.445-3.412 6.974-.595 3.448-2.563 6.092-4.093 8.302-1.492 2.156-2.156 4.803-4.436 6.642-1.924 1.553-4.099 1.254-6.822 1.992-2.909.789-5.556 2.652-9.211 2.656-5.036.007-11.603-1.342-15.351-3.32-4.663-2.462-9.033-6.854-9.552-13.284-.155-1.923.78-3.34-.682-5.313-1.229-.13-2.288-.43-3.411-.663.529-1.921 1.662-3.253 3.07-4.317-.003 1.034-.807 2.164 0 2.988 2.6-.132 3.862-3.28 6.14-5.313 2.813-2.511 9.178-6.356 11.599-6.31 2.885.055 5.301 2.883 7.505 4.649 5.055-1.15 8.69-6.23 14.328-4.981 1.471.326 3.069 2.783 4.777 4.317 2.785 2.501 5.172 3.165 6.481 6.309zm-9.21-3.985c-1.255-1.121-2.496-3.668-4.095-3.985-5.065-1.002-8.886 6.374-13.646 4.649-1.573-2.121-3.599-3.802-6.822-4.317-3.125 2.604-7.408 4.08-10.234 6.974 1.801 1.907 5.046 2.047 7.846 2.657 2.903.632 5.992 1.643 8.87 1.993 7.812.949 14.088-2.196 21.15-1.993 2.141-3.402-1.429-4.512-3.069-5.978zm-36.844 9.963C14.259 36.496 17.12 42.84 22.95 45.32c3.75 1.596 11.813 2.618 16.717 1.993 8.498-1.085 13.214-8.189 13.986-15.94-5.103-1.387-11.066 1.74-16.376 2.325-1.021.443-.03 2.847-1.364 2.989-1.131-.007-.346-1.877-1.023-2.326-3.092-.448-3.7.108-5.799.997.045-.818.051-1.6-.341-1.993-5.914.239-10.463-1.381-16.374-2.656-.082.477.246.703.34.996z"/></svg>