<svg xmlns="http://www.w3.org/2000/svg" viewBox="0 0 100 100"><path d="M86.564 12.05a.497.497 0 00-.09-.199c-.008-.01-.019-.015-.028-.024-.004-.005-.004-.012-.009-.016-.008-.008-.021-.009-.029-.016a.489.489 0 00-.196-.109c-.014-.004-.025-.011-.039-.013a.488.488 0 00-.248.019c-.008.003-.016-.001-.024.002L41.013 28.887a.502.502 0 00-.058.908l11.337 6.107 2.021 14.916c.002.019.006.037.01.056a.483.483 0 00.225.309.492.492 0 00.339.068h.001a.506.506 0 00.311-.18l7.667-9.473 9.173 4.942a.508.508 0 00.406.031.496.496 0 00.294-.282L86.544 12.35c.004-.01 0-.021.003-.032a.49.49 0 00.021-.222c-.002-.017-.001-.031-.004-.046zM42.389 29.431l5.042-1.931-.217 2.07.497.053.243-2.323 1.878-.72c.07 1.453.02 2.917-.163 4.358l.498.062c.193-1.524.243-3.073.159-4.609l1.687-.646-.073 4.661.5.008.076-4.861 1.542-.591c.122 1.62.146 3.256.055 4.87l.499.029a37.416 37.416 0 00-.063-5.088l1.611-.617c.144 1.464.249 2.946.299 4.419l.5-.018a70.196 70.196 0 00-.313-4.588l1.596-.611a72.14 72.14 0 00.056 5.032l.499-.023a72.151 72.151 0 01-.053-5.201l1.738-.666a99.45 99.45 0 00.258 5.086l.498-.039a99.726 99.726 0 01-.263-5.236l1.671-.64c.079.954.097 1.919.039 2.877l.499.031a20.767 20.767 0 00-.047-3.096l1.73-.662a39.603 39.603 0 00.086 3.233l.499-.035a39.081 39.081 0 01-.086-3.389l1.453-.557a8.363 8.363 0 00.072 2.223l.492-.086a7.9 7.9 0 01-.053-2.333l1.263-.484c.015.636.102 1.266.299 1.875l.476-.154a6.085 6.085 0 01-.286-1.908l13.414-5.138-29.777 20.927-10.33-5.564zm12.462 17.908l-1.562-11.522L78.813 17.88 56.554 37.432a.507.507 0 00-.164.297l-1.539 9.61zm5.157-3.801a53.913 53.913 0 01-.337-3.268l-.499.035c.087 1.255.226 2.519.401 3.77l-.44.543a19.958 19.958 0 01-.43-3.418l-.5.016a20.52 20.52 0 00.518 3.912l-.458.566c-.098-.896-.196-1.795-.319-2.69l-.495.068c.145 1.052.266 2.114.376 3.163l-.296.366a29.893 29.893 0 01-.2-2.117l-.499.027c.048.881.139 1.764.262 2.629L55.6 48.984l1.667-10.403 3.148 1.696c.052.843.117 1.685.196 2.516l-.603.745zm1.059-1.308a76.2 76.2 0 01-.13-1.67l1.032.556-.902 1.114zm10.955 3.166l-14.267-7.687 27.064-23.774-12.797 31.461zm-29.554-1.344a139.903 139.903 0 00-29.041 21.496l.693.721a138.971 138.971 0 0128.834-21.344l-.486-.873zm5.813 8.761c-1.737 2.56-3.661 5.039-5.522 7.438L31.489 74.78l.79.613L43.55 60.864c1.871-2.411 3.804-4.904 5.559-7.49l-.828-.561zm9.926 11.633a274.252 274.252 0 00-1.827 3.839 129.643 129.643 0 00-7.259 19.783l.964.268a128.618 128.618 0 017.203-19.631 261.38 261.38 0 011.82-3.824c1.957-4.055 3.98-8.248 5.249-12.66l-.961-.275c-1.245 4.328-3.25 8.483-5.189 12.5zm-22.361-8.695l-8.074 11.448.408.289 8.075-11.448zm16.15 4.991a70.633 70.633 0 00-4.985 14.816l.488.105a70.154 70.154 0 014.95-14.711l-.453-.21z"/></svg>