<svg xmlns="http://www.w3.org/2000/svg" viewBox="0 0 50.64 62.64"><path fill-rule="evenodd" clip-rule="evenodd" d="M35.902 22.835c-.466.58-1.301.607-2.061.258-.436-2.217 2.441-2.814 2.061-.258zM18.895 21.29c.085 1.116-.355 1.706-1.031 2.061-1.82-.156-1.002-2.808 1.031-2.061z"/><path fill-rule="evenodd" clip-rule="evenodd" d="M41.996 23.743c.992.344 2.147-.179 2.925.381 1.203 2.292.83 4.618.774 7.989-1.065 1.895-1.813 1.768-3.878 2.368.202 1.063-.358 1.97-.537 2.864-.849 2.851-3.475 4.685-6.408 5.592-1.419.438-3.168-.199-4.124 1.031 4.957.74 8.503 3.655 9.792 8.504.314 1.179 1.105 4.001-.772 4.381-.405-4.816-3.28-9.212-7.988-10.565-2.268 2.026-9.007 6.795-10.049.515-4.616-.082-7.298 5.132-9.277 9.277-.623-3.322 3.775-8.623 6.958-10.823 1.559-.395 2.045.328 2.319-.258.806-.936-.506-1.402-.773-2.062-7.261.218-10.814-3.273-11.339-9.792-.638.89-1.429.804-2.577.772-3.072-2.3-1.065-11.348 3.607-10.05 1.02-1.726.511-3.141.773-4.896C13.026 8.232 28.36 1.546 37.19 9.178c3.422 2.956 4.278 8.962 4.806 14.565zm-8.929-12.762c-2.663 2.859-10.335 2.802-13.399.516-2.932 1.449-4.486 4.275-6.443 6.7-.237 2.835-.739 5.965-1.546 7.474-1.375.001-1.065-1.113-3.058-.854-1.857 2.076-3.298 5.793-.55 7.554.985.734 1.396-.891 2.32-1.031.617 6.685 6.104 10.3 11.854 10.05.5 1.047.853 2.24 1.288 3.351-.366.492-.979.739-1.03 1.547 1.206 2.441 5.946 1.525 7.472 0 .222-1.681-.589-2.332-.772-3.608.347-.169.48-.551.515-1.031 3.086-.933 6.277-1.011 8.506-2.575 2.185-1.537 1.727-4.21 3.092-6.702.949.685 2.203.41 3.098-.485.627-4.474-.271-7.477-3.613-5.958-1.274-5.993-1.361-12.99-7.734-14.948z"/></svg>