<svg width="1600" height="1600" viewBox="0 0 1200 1200" xmlns="http://www.w3.org/2000/svg"><path d="M827.06 385.67c241.01-114.48 382.67 204.94 230.52 351.18-93.492 19.523-245.4 8.453-337.56 25.688-78.227 153.95-240.15 326.55-452.98 278.28 53.035-25.094 80.094-45.402 116.22-73.949 58.949-46.602 108.38-115.48 116.24-211.36-184.89 1.984-444.41 29.027-401.57-227.2 23.988-110.69 130-209.77 264.18-163.8 12.594-57.863 39.445-101.45 68.703-142.65 45.172-40.898 93.453-66.242 153.23-68.684 121.62-5 244.52 99.98 243.01 232.48zM571.39 182.81c-103.68 8.129-184.91 138.59-161.72 234.56-51.086-34.598-53.262-34.293-87.785-41.926-144.5-31.91-245.82 220.15-139.41 313.7 95.02 33.531 209.14 31.203 343.43 29.391 12.117 118.86-75.59 249.46-187.52 304.5 197.94-18.684 304.5-140 361.87-299.22 70.266.59 119.81-8.723 184.92-5.285 36.719 1.91 91.738.574 117.31-5.535 27.805-6.622 61.145-37.56 72.863-63.168 58.434-127.48-73.855-273.15-179.27-261.57-39.027 4.293-67.062 30.344-106.05 50.23 46.262-134.68-94.445-265.42-218.64-255.69z" fill-rule="evenodd"/></svg>