<svg viewBox="0 0 76 76" fill="none" xmlns="http://www.w3.org/2000/svg"><path d="M75.844 16.442a1.286 1.286 0 0 0-.25-.829 1.454 1.454 0 0 0-.441-.522c-10.783-8-26.184-12.23-36.93-2.323C27.477 2.862 12.078 7.092 1.294 15.09a1.454 1.454 0 0 0-.44.523 1.29 1.29 0 0 0-.251.829C.878 29.79.468 43.138.448 56.487c0 .234.048.435.131.607-.226.962.475 2.107 1.635 1.654 11.384-4.437 24.26-5.418 34.64 1.734.238.562.767.968 1.37.829.604.138 1.133-.268 1.369-.829 10.381-7.152 23.256-6.17 34.64-1.733 1.161.452 1.862-.693 1.636-1.655.082-.172.131-.373.131-.607-.022-13.35-.431-26.697-.156-40.045zm-37.62 41.617c-10.389-7.159-23.414-6.723-34.98-2.64.038-12.814.403-25.627.157-38.442 9.866-7.1 24.03-11.295 33.728-1.404.34.345.73.45 1.095.401.365.05.755-.056 1.094-.4 9.697-9.892 23.861-5.697 33.728 1.403-.247 12.815.12 25.628.158 38.444-11.567-4.085-24.593-4.52-34.98 2.638z" fill="#000"/><path d="M74.864 60.852c-11.797-4.75-28.302-6.539-36.969 3.737-8.667-10.275-25.173-8.486-36.969-3.737-2.083.837-.285 3.665 1.78 2.835 10.675-4.298 26.604-6.212 33.624 4.54.39.598.987.811 1.565.771.58.04 1.175-.173 1.565-.772 7.02-10.752 22.95-8.837 33.624-4.54 2.064.832 3.862-1.997 1.78-2.834zM8.06 28.914c.27.617.963 1.036 1.69.562 1.874-1.219 3.87-2.107 6.067-2.543.72-.143.96-.726.865-1.282a1.35 1.35 0 0 0 .04-.315V18.36c0-.82-.656-1.213-1.29-1.186a1.311 1.311 0 0 0-.352-.046c-2.524.044-4.939.707-6.982 2.22-.401.297-.55.715-.526 1.117-.04.109-.072.225-.084.357-.196 2.322-.205 4.648-.205 6.976 0 .595.345.966.778 1.116zm1.874-7.844c1.328-.841 2.764-1.296 4.325-1.433v5.128c-1.58.406-3.089 1.042-4.511 1.84.008-1.847.04-3.692.186-5.535zm11.628-1.114c3.028-1.037 5.95-.755 8.695.902 1.363.824 2.6-1.306 1.243-2.125-3.27-1.974-6.975-2.39-10.593-1.15-1.492.511-.851 2.89.655 2.373zm-.205 5.335c3.04-.64 5.883-.188 8.49 1.518 1.333.871 2.565-1.261 1.242-2.126-3.161-2.067-6.723-2.537-10.386-1.765-1.554.327-.894 2.7.654 2.373zM32.32 32.48c-8.223-4.62-17.88-2.83-25.453 2.257-1.311.88-.08 3.014 1.242 2.126 6.834-4.59 15.487-6.461 22.969-2.257 1.386.779 2.626-1.349 1.243-2.126z" fill="#000"/><path d="M32.32 38.225c-8.223-4.62-17.88-2.83-25.453 2.257-1.311.881-.08 3.015 1.242 2.126 6.834-4.59 15.487-6.461 22.97-2.257 1.385.78 2.625-1.348 1.242-2.126z" fill="#000"/><path d="M32.32 43.97c-8.223-4.62-17.88-2.83-25.453 2.258-1.311.88-.08 3.014 1.242 2.125 6.834-4.59 15.487-6.46 22.969-2.257 1.386.779 2.626-1.348 1.243-2.125zm10.784-8.394c7.107-4.812 15.884-3.669 23.078.337 1.39.775 2.44-1.453 1.06-2.221-7.97-4.44-17.743-5.42-25.553-.131-1.316.89.098 2.906 1.415 2.015z" fill="#000"/><path d="M43.582 41.301c7.107-4.812 15.884-3.668 23.077.338 1.391.775 2.44-1.454 1.06-2.222-7.97-4.44-17.743-5.419-25.553-.13-1.314.89.1 2.906 1.416 2.014zm-.478-17.215c7.107-4.812 15.884-3.669 23.078.337 1.39.775 2.44-1.453 1.06-2.221-7.97-4.44-17.743-5.42-25.553-.131-1.316.89.098 2.906 1.415 2.015z" fill="#000"/><path d="M42.167 27.796c-1.315.89.098 2.906 1.415 2.015 7.107-4.813 15.884-3.67 23.077.337 1.391.775 2.44-1.454 1.061-2.222-7.97-4.439-17.743-5.418-25.553-.13zM68.2 45.142c-7.971-4.44-17.745-5.42-25.555-.13-1.315.89.1 2.906 1.415 2.014 7.107-4.811 15.885-3.669 23.078.337 1.39.776 2.44-1.453 1.061-2.221z" fill="#000"/></svg>