<svg viewBox="0 0 82 56" fill="none" xmlns="http://www.w3.org/2000/svg"><path d="M50.346 52.192C45.561 35.028 39.43 18.391 34.134 1.424c-.129-.41-.347-.705-.608-.9-.49-.363-1.137-.325-1.26-.351a1.407 1.407 0 00-.225-.03C27.73-.04 23.442.162 19.148.58a1.582 1.582 0 00-.347.073c-.187.062-.667.182-.969.437a1.655 1.655 0 00-.422.57C9.684 17.959 4.332 35.516.06 53.283c-.107.446-.065.839.074 1.163.258.602.982 1.034 1.272 1.154.163.067.347.106.553.108 3.452.017 8.655.203 12.107.218a1.37 1.37 0 001.038-.43c.437-.465.515-1.139.574-1.265a1.77 1.77 0 00.09-.237l2.128-7.125c.277-.927 1.286-1.724 2.253-1.787 2.726-.174 5.452-.384 8.18-.559.966-.061 2.044.623 2.423 1.514a78.363 78.363 0 002.622 5.599c.447.858.806 2.026 1.137 2.447.184.232.454.405.821.475 3.29.627 5.325.945 8.231.794.968-.05 1.837-.109 1.948-.093.065.01.132.015.203.015 1.193-.001 2.411-.027 3.542-.498.35-.146.651-.39.856-.702.342-.517.323-1.247.307-1.473a2.259 2.259 0 00-.073-.408zm-3.56-.632a.742.742 0 00-.095.006c-3.267.466-5.268.445-8.113.027-.958-.142-2.114-.967-2.56-1.826-1.344-2.588-2.524-5.274-3.609-8.014-.145-.367-.35-.61-.586-.75-.458-.277-.983-.106-1.044-.11a.954.954 0 00-.11-.003c-4.431.24-8.853.641-13.283.871a1.509 1.509 0 00-.64.175c-.325.176-.69.588-.847.838-.087.14-.16.3-.215.485l-2.234 7.477c-.277.928-1.287 1.67-2.255 1.653-1.841-.032-4.044-.077-5.885-.112-.968-.018-1.567-.795-1.333-1.735C7.83 35.104 12.56 19.887 19.098 5.6c.404-.88 1.52-1.665 2.485-1.739a91.726 91.726 0 018.189-.284c.968.012 1.988.79 2.282 1.714 4.733 14.881 10 29.552 14.346 44.584.268.93.44 1.685.386 1.685z" fill="#000"/><path d="M26.932 19.727a1.809 1.809 0 00-.502-.782c-.389-.345-.962-.432-1.115-.467a1.287 1.287 0 00-.28-.031c-.73 0-1.472.04-2.174.28-.088.03-.17.068-.25.114-.13.075-.602.253-.886.597a1.802 1.802 0 00-.347.724c-1.213 4.92-2.555 9.794-4.103 14.598-.253.787.003 1.407.46 1.766.762.6 1.696.218 1.743.222a.65.65 0 00.085 0c2.996-.209 5.991-.43 8.986-.653a1.33 1.33 0 00.344-.072c.184-.064.402-.156.506-.173.103-.018 1.036.02 1.572-.672.286-.368.42-.883.257-1.506-1.233-4.725-2.731-9.347-4.296-13.945zM25.937 32.8c-1.038.076-2.074.152-3.11.226-.967.07-1.518-.624-1.243-1.552.767-2.59 1.483-5.195 2.158-7.817.241-.938.471-1.702.522-1.705.05-.002.34.74.645 1.66a205.701 205.701 0 012.299 7.372c.267.93-.306 1.745-1.271 1.816zm22.497-17.966a1.59 1.59 0 00-.691.259c-.337.237-.78.874-.917 1.37-.08.29-.09.606-.026.92.204 1.008.442 2.009.645 3.016.02.09.048.176.084.257.061.135.091.412.09.635 0 .132.013.266.041.4.11.522.262 1.032.442 1.533.298.83.69 2.236 1.338 2.756a1.76 1.76 0 001.418.36c4.977-.81 10.272-1.468 14.685.453.888.387.766.808-.2.883-7.244.563-14.873 4.419-15.51 12.109-.402 4.864 2.451 8.423 6.117 11.253 4.043 3.122 9.488 3.423 14.393 2.333.946-.21 1.723-.157 1.769.186.045.344.045 1.307.551 1.853.277.298.68.495 1.211.495h5.168c.092 0 .177-.008.259-.02.142-.023.891-.075 1.394-.565.28-.272.471-.65.501-1.137.627-10.059 2.39-21.658-2.754-30.877-5.885-10.547-19.79-9.967-30.008-8.473zM78.008 50.71c-.079.966-.684 1.749-1.357 1.749-.674 0-1.255-.433-1.264-.969-.006-.323-.005-.647-.005-.97 0-.761-.404-1.26-.937-1.5-.882-.398-2.429.337-3.36.606-3.453.998-6.941 1.155-10.48.074-4.134-1.264-8.052-5.808-7.242-10.256 1.38-7.57 11.802-9.485 17.9-7.936.997.253 1.727-.321 2.01-1.065.347-.905-.21-1.871-.315-2.09a1.835 1.835 0 00-.235-.37c-4.938-6.08-12.237-6.35-19.359-5.464-.96.12-1.926-.192-2.106-.739a9.71 9.71 0 01-.274-1.006 1.177 1.177 0 00-.085-.256c-.062-.137-.092-.415-.091-.636 0-.133-.011-.266-.039-.4-.05-.248-.103-.494-.155-.741-.088-.409.617-.846 1.579-.952 9.6-1.055 20.631-.257 24.583 10.022 2.696 7.017 1.849 15.329 1.232 22.9z" fill="#000"/><path d="M68.579 36.086c-2.147-1.2-4.75-.817-6.699.56-2.353 1.665-2.859 5.01-1.212 7.29 1.455 2.014 4.512 2.877 6.923 2.492 3.211-.512 4.476-3.07 4.15-5.606-.24-1.865-1.34-3.718-3.162-4.736zm-.336 5.804c-.02.077-.044.15-.07.218-.704 1.858-3.473.707-4.705-.095-.604-.393.047-1.777.339-2.124.496-.587 1.447-1.057 2.222-1.021 1.473.068 2.578 1.636 2.214 3.022z" fill="#000"/></svg>