<svg width="79" height="79" viewBox="0 0 79 79" fill="none" xmlns="http://www.w3.org/2000/svg">
<path d="M33.17 59.6522C31.3385 65.1383 29.6168 70.2003 27.9685 75.2877C27.4627 76.8487 26.8555 78.1209 24.9169 77.9194C22.5007 72.1417 20.1015 66.4006 17.6458 60.5285C15.5283 61.1879 13.8983 61.7697 12.2274 62.1994C8.55028 63.1448 6.33697 61.9233 5.33809 58.3209C2.65987 48.6618 0.0196755 38.9928 0.0732119 28.8406C0.0971624 24.3084 -0.132481 19.7648 0.119704 15.2466C0.37048 10.7763 2.62464 7.94594 7.19919 6.40465C12.1654 4.73094 17.2359 4.16458 22.3077 3.78982C33.9364 2.93324 45.4805 0.927033 57.198 1.22007C61.2766 1.32151 65.3637 1.19753 69.4437 1.07074C76.402 0.852364 78.6027 3.78419 78.6928 9.96764C78.8083 17.7854 78.6562 25.6073 78.6872 33.4279C78.7083 38.3109 78.7351 43.1982 78.9718 48.0729C79.2761 54.3465 77.1093 57.7517 70.9385 58.659C66.0117 59.3831 60.9511 59.2408 55.9469 59.3888C51.5414 59.5184 47.1317 59.5212 42.722 59.5705C39.5873 59.6057 36.4512 59.6241 33.17 59.6522ZM25.6326 73.6506C26.1116 72.6968 26.4723 72.1276 26.6949 71.5077C28.1953 67.3389 29.6859 63.1631 31.1412 58.9774C31.6879 57.4051 32.5543 56.8092 34.3196 57.1473C36.0102 57.4699 37.7924 57.4093 39.5295 57.3755C46.0582 57.2459 52.5854 57.043 59.1126 56.8993C62.8291 56.8176 66.5387 56.9726 70.2143 56.0695C75.0368 54.8833 76.1837 53.5336 76.109 48.5801C76.0583 45.3284 76.0428 42.0768 76.0301 38.8252C75.9977 29.724 75.9906 20.6214 75.923 11.5202C75.9146 10.3734 75.7215 9.19841 75.4158 8.08964C74.5705 5.02539 73.3645 4.03496 70.2369 3.83913C68.3786 3.72361 66.5077 3.76164 64.6409 3.7546C57.7615 3.72642 50.8581 3.34181 44.0069 3.77855C34.9325 4.35759 25.8707 5.39169 16.8569 6.61598C12.9825 7.14289 9.22934 8.60246 5.4508 9.74082C5.00279 9.87607 4.74638 10.658 4.11239 11.5427C8.06986 11.5103 11.4934 11.4822 14.9169 11.4526C14.421 12.0119 13.8884 12.164 13.3446 12.2317C10.6791 12.5613 7.9966 12.7783 5.34796 13.208C2.93741 13.5997 2.92473 13.7391 2.8726 17.0189C5.96362 16.9936 9.05606 16.9668 12.1485 16.9415C12.1626 17.157 12.1767 17.3726 12.1908 17.5881C9.04338 18.077 5.89459 18.5645 2.6655 19.066C2.67818 20.6763 2.68945 21.9316 2.70213 23.6025C4.29273 23.5898 5.76075 23.463 7.20341 23.5997C8.49815 23.7223 10.0944 22.8192 11.3342 24.5676C8.29105 24.8536 5.55365 25.1114 2.78103 25.372C2.79934 27.4825 2.81343 29.1816 2.82752 31.0553C4.89431 31.1469 6.77372 31.23 8.65312 31.3132C8.68412 31.5879 8.71652 31.8612 8.74752 32.1345C6.90051 32.4008 5.05491 32.6657 2.87824 32.9798C3.18678 35.2312 3.4615 37.2543 3.72496 39.1774C5.92418 39.569 7.80218 39.9029 9.67877 40.2368C9.65482 40.4214 9.63228 40.6074 9.60833 40.7919C7.81486 41.0033 6.0228 41.2146 4.24342 41.4245C4.7816 46.4823 4.7816 46.4724 9.48857 46.4766C10.858 46.4781 12.226 46.5471 13.5954 46.5865C13.5869 46.788 13.5799 46.9881 13.5714 47.1895C11.0989 47.5629 8.62636 47.9362 5.83824 48.3561C6.3581 49.9706 6.77231 51.2512 7.27808 52.8193C10.5776 52.7911 13.8152 52.7644 17.0513 52.7376C17.0752 52.9954 17.0992 53.2518 17.1231 53.5096C14.011 53.9872 10.8988 54.4648 7.77118 54.9438C8.92221 59.9481 9.88023 60.4835 14.3533 58.8562C15.6438 58.3871 16.9062 57.839 18.5729 57.1698C20.9172 62.6418 23.1897 67.9518 25.6326 73.6506Z" fill="#231F20"/>
<path d="M15.6198 27.7445C16.8596 27.6558 18.0882 27.5177 19.3195 27.4881C22.9304 27.4008 26.5483 27.4754 30.1507 27.2698C36.5314 26.9049 42.9051 26.4174 49.2759 25.9102C53.5645 25.5693 57.8389 25.0607 62.1303 24.7578C62.7389 24.7155 63.7984 25.2861 63.9576 25.7919C64.3323 26.9781 63.5307 27.8178 62.343 27.9587C60.272 28.2038 58.1827 28.3024 56.1004 28.4602C48.9068 29.0069 41.7174 29.6775 34.5154 30.0551C28.9405 30.3481 23.3446 30.265 17.7613 30.3678C16.2271 30.396 15.3028 29.9099 15.6198 27.7445Z" fill="#231F20"/>
<path d="M63.8167 19.5281C54.9367 20.0254 46.2159 20.4354 37.5064 21.0271C30.9961 21.4695 24.5027 22.1542 17.9994 22.7149C17.0752 22.7952 16.1242 22.9065 15.2155 22.7825C13.9856 22.6163 13.3713 21.8724 13.9011 20.2269C14.8774 20.117 15.9848 19.9677 17.0949 19.8718C22.2049 19.4295 27.3105 18.9265 32.4275 18.5884C36.8428 18.2968 41.2694 18.2319 45.689 18.0065C49.9945 17.7867 54.2957 17.5233 58.5941 17.2119C59.8621 17.1204 61.1061 16.7259 62.3755 16.5935C64.2394 16.3976 64.4155 16.7245 63.8167 19.5281Z" fill="#231F20"/>
<path d="M35.389 34.9705C35.3594 36.7781 35.1593 37.6502 33.0151 37.5389C28.387 37.298 23.7307 37.436 19.0914 37.5966C17.3275 37.6586 17.1922 36.7964 17.1641 35.5496C19.3112 34.7198 32.0162 34.2943 35.389 34.9705Z" fill="#231F20"/>
</svg>
