<svg viewBox="0 0 76 76" fill="none" xmlns="http://www.w3.org/2000/svg">
<path d="M75.8437 16.4416C75.851 16.1 75.7549 15.8245 75.5937 15.6133C75.4976 15.4212 75.3565 15.2417 75.1529 15.0905C64.3696 7.09179 48.9695 2.8619 38.2235 12.7679C27.4768 2.8619 12.0772 7.09179 1.29396 15.0905C1.09035 15.2417 0.950186 15.4212 0.853116 15.6133C0.692438 15.8245 0.595526 16.0993 0.602628 16.4416C0.877581 29.7904 0.467993 43.1378 0.447632 56.4875C0.447632 56.7208 0.496088 56.9219 0.57911 57.0942C0.352614 58.0561 1.05357 59.2014 2.21415 58.7485C13.5982 54.3114 26.4738 53.3295 36.8544 60.482C37.0916 61.0439 37.621 61.4502 38.2246 61.3107C38.8277 61.4494 39.3571 61.0432 39.593 60.482C49.9742 53.3295 62.8493 54.3112 74.2338 58.7485C75.3944 59.2012 76.0948 58.0559 75.8687 57.0942C75.9506 56.9219 76.0001 56.7208 76.0001 56.4875C75.9785 43.1378 75.5689 29.7904 75.8437 16.4416ZM38.2235 58.0585C27.8354 50.9002 14.8104 51.3362 3.24309 55.4199C3.2816 42.6047 3.64747 29.7917 3.40061 16.9765C13.2673 9.8773 27.4314 5.68151 37.1295 15.5732C37.4682 15.9185 37.8581 16.0229 38.2235 15.9742C38.5886 16.0235 38.9786 15.9185 39.3176 15.5732C49.0145 5.68151 63.1793 9.87651 73.0456 16.9765C72.7989 29.7917 73.1658 42.6047 73.2036 55.4207C61.6365 51.3362 48.6106 50.9002 38.2235 58.0585Z" fill="black"/>
<path d="M74.8635 60.8516C63.0671 56.1028 46.562 54.313 37.895 64.589C29.228 54.3138 12.7225 56.1028 0.925996 60.8516C-1.15714 61.6892 0.641415 64.5169 2.7053 63.6865C13.3808 59.3888 29.3102 57.475 36.33 68.2262C36.7209 68.8249 37.3167 69.0382 37.895 68.9981C38.4744 69.0382 39.0696 68.8249 39.46 68.2262C46.4795 57.4742 62.4091 59.3889 73.0842 63.6865C75.1481 64.5177 76.9457 61.6892 74.8635 60.8516Z" fill="black"/>
<path d="M8.06085 28.9139C8.33044 29.531 9.0235 29.9498 9.75035 29.4761C11.6236 28.2574 13.6204 27.3693 15.8173 26.9326C16.5363 26.7899 16.7774 26.2071 16.6818 25.6514C16.7047 25.554 16.7211 25.4498 16.7211 25.3357V18.3595C16.7211 17.5404 16.0662 17.1471 15.4319 17.1736C15.3233 17.1455 15.2095 17.1267 15.0796 17.1283C12.5556 17.1716 10.1412 17.8348 8.09779 19.3485C7.69704 19.6446 7.54883 20.0625 7.57172 20.4645C7.53162 20.5739 7.49958 20.6902 7.4879 20.8217C7.29187 23.1437 7.28271 25.4696 7.28271 27.7978C7.28271 28.393 7.62806 28.7644 8.06085 28.9139ZM9.93359 21.0702C11.2616 20.2289 12.698 19.7737 14.2588 19.6367V24.7654C12.679 25.1714 11.1703 25.807 9.74798 26.6044C9.75571 24.7577 9.78854 22.9128 9.93359 21.0702Z" fill="black"/>
<path d="M21.5624 19.9565C24.59 18.9193 27.5127 19.2014 30.2573 20.8585C31.6203 21.6816 32.8566 19.5521 31.4997 18.7329C28.2299 16.7588 24.525 16.3436 20.9075 17.5832C19.4148 18.0943 20.0557 20.4731 21.5624 19.9565Z" fill="black"/>
<path d="M21.3573 25.2912C24.3966 24.6519 27.2396 25.1032 29.8472 26.8088C31.1801 27.6804 32.412 25.548 31.0895 24.6832C27.928 22.6157 24.3661 22.1464 20.7026 22.9178C19.1488 23.2447 19.8087 25.6179 21.3573 25.2912Z" fill="black"/>
<path d="M32.3205 32.4802C24.0975 27.8603 14.4395 29.6501 6.8665 34.7372C5.55566 35.6177 6.78679 37.7515 8.10884 36.8628C14.9432 32.2725 23.5962 30.402 31.078 34.6058C32.4644 35.3849 33.7044 33.2573 32.3205 32.4802Z" fill="black"/>
<path d="M32.3205 38.2254C24.0975 33.6056 14.4396 35.3953 6.86652 40.4824C5.55584 41.3632 6.78697 43.4968 8.10902 42.6079C14.9434 38.0177 23.5963 36.147 31.0782 40.3508C32.4644 41.1301 33.7044 39.0027 32.3205 38.2254Z" fill="black"/>
<path d="M32.3205 43.9705C24.0975 39.3506 14.4395 41.1403 6.8665 46.2275C5.55566 47.1083 6.78679 49.2419 8.10884 48.3531C14.9432 43.7629 23.5962 41.8922 31.078 46.0961C32.4644 46.875 33.7044 44.748 32.3205 43.9705Z" fill="black"/>
<path d="M43.1042 35.576C50.211 30.7643 58.9882 31.9072 66.1816 35.9134C67.5723 36.6881 68.6213 34.4599 67.2429 33.6917C59.2728 29.2522 49.4993 28.2725 41.6889 33.561C40.3735 34.4509 41.7874 36.4673 43.1042 35.576Z" fill="black"/>
<path d="M43.582 41.3015C50.6888 36.4893 59.4659 37.6327 66.6594 41.6391C68.0501 42.4141 69.0991 40.1851 67.7199 39.4174C59.7489 34.9779 49.9763 33.998 42.1658 39.2867C40.852 40.1763 42.2651 42.1928 43.582 41.3015Z" fill="black"/>
<path d="M43.1042 24.0859C50.211 19.2742 58.9882 20.4171 66.1816 24.4233C67.5723 25.198 68.6213 22.97 67.2429 22.2016C59.2728 17.7621 49.4993 16.7823 41.6889 22.0709C40.3735 22.9606 41.7874 24.9772 43.1042 24.0859Z" fill="black"/>
<path d="M42.1666 27.7956C40.8521 28.6861 42.2653 30.7019 43.5821 29.8106C50.6889 24.9984 59.4661 26.1418 66.6595 30.1477C68.0502 30.9227 69.0992 28.6942 67.72 27.9263C59.7505 23.4874 49.977 22.5077 42.1666 27.7956Z" fill="black"/>
<path d="M68.1991 45.1415C60.229 40.7028 50.4548 39.7226 42.645 45.0116C41.3305 45.9023 42.7444 47.9179 44.0605 47.0259C51.1673 42.2146 59.9454 43.3575 67.1379 47.3634C68.5285 48.139 69.5778 45.9102 68.1991 45.1415Z" fill="black"/>
</svg>
