<svg width="82" height="56" viewBox="0 0 82 56" fill="none" xmlns="http://www.w3.org/2000/svg">
<path d="M50.3464 52.192C45.5608 35.0277 39.4302 18.3909 34.1335 1.42388C34.0055 1.0138 33.7871 0.719218 33.5259 0.524463C33.0358 0.161425 32.3888 0.199027 32.266 0.172891C32.194 0.157884 32.1195 0.14726 32.0409 0.143719C27.7313 -0.0412562 23.442 0.161256 19.1484 0.579601C19.0247 0.592079 18.9092 0.616529 18.8011 0.653288C18.6144 0.71534 18.1337 0.834891 17.8322 1.09001C17.6708 1.22575 17.5261 1.41376 17.4096 1.66079C9.68416 17.9584 4.33218 35.5147 0.0603697 53.2818C-0.0467037 53.728 -0.00471747 54.121 0.134056 54.4454C0.391707 55.0472 1.1161 55.4789 1.40562 55.5988C1.56884 55.6664 1.7528 55.705 1.95869 55.7067C5.41067 55.7239 10.6136 55.9097 14.0656 55.9251C14.5099 55.9269 14.8562 55.759 15.1038 55.4953C15.541 55.0302 15.6192 54.3564 15.6779 54.2298C15.7121 54.1559 15.7416 54.0782 15.7673 53.9925L17.8959 46.8685C18.1735 45.9413 19.1817 45.1441 20.1487 45.0815C22.8754 44.907 25.6012 44.6972 28.3284 44.5225C29.2951 44.4608 30.3728 45.1449 30.7516 46.0364C31.5598 47.9416 32.4247 49.8126 33.3735 51.6346C33.8205 52.4933 34.1802 53.6614 34.5115 54.0817C34.6948 54.3137 34.9649 54.4867 35.3322 54.5569C38.6211 55.1845 40.6569 55.502 43.5632 55.3514C44.5307 55.3019 45.4 55.242 45.5112 55.258C45.5763 55.2676 45.6431 55.2727 45.7141 55.2727C46.9069 55.2718 48.1254 55.2462 49.2556 54.7753C49.6057 54.6289 49.9072 54.3849 50.1119 54.0731C50.4543 53.556 50.4346 52.8257 50.4191 52.5996C50.4081 52.4684 50.3849 52.3331 50.3464 52.192ZM46.7862 51.56C46.7545 51.56 46.7245 51.5619 46.6911 51.5661C43.4237 52.032 41.4227 52.0106 38.5783 51.5926C37.6197 51.4513 36.4641 50.6259 36.0176 49.7671C34.6737 47.1786 33.4942 44.4935 32.409 41.7534C32.2635 41.3862 32.0583 41.1439 31.8232 41.0026C31.3647 40.726 30.8395 40.8974 30.7791 40.8932C30.7432 40.8905 30.7071 40.8889 30.6687 40.8904C26.238 41.1302 21.8163 41.531 17.3859 41.7612C17.1432 41.774 16.9291 41.8374 16.7458 41.9359C16.4208 42.1123 16.0553 42.524 15.899 42.7743C15.812 42.9137 15.7393 43.0748 15.684 43.2589C14.9392 45.7523 14.1946 48.2448 13.4501 50.7365C13.1731 51.6639 12.1632 52.4062 11.1952 52.3891C9.35383 52.3566 7.15116 52.3121 5.30983 52.277C4.34179 52.2591 3.74251 51.4823 3.97706 50.5422C7.82901 35.1039 12.5601 19.8869 19.0984 5.60041C19.5017 4.72022 20.6178 3.93547 21.5831 3.86111C24.3102 3.65134 27.0378 3.54258 29.7718 3.57681C30.7398 3.58929 31.7602 4.36747 32.0537 5.291C36.787 20.1725 42.0539 34.8429 46.4 49.8753C46.668 50.8048 46.8393 51.56 46.7862 51.56Z" fill="black"/>
<path d="M26.9317 19.7268C26.8168 19.3894 26.6405 19.1318 26.4304 18.9446C26.0415 18.5999 25.4675 18.5126 25.3151 18.4784C25.2239 18.4581 25.1306 18.4467 25.0342 18.4467C24.3046 18.4475 23.5632 18.487 22.8607 18.7262C22.7728 18.7562 22.6907 18.7947 22.6118 18.8406C22.4808 18.9159 22.0095 19.094 21.7252 19.4383C21.5728 19.6233 21.4515 19.8631 21.3778 20.1619C20.1646 25.0823 18.8229 29.956 17.2752 34.7604C17.0222 35.5474 17.2782 36.1666 17.7358 36.5262C18.4975 37.1255 19.4313 36.7444 19.478 36.7478C19.5053 36.7496 19.5331 36.7505 19.5632 36.7486C22.5592 36.539 25.5544 36.3171 28.5486 36.0954C28.6727 36.086 28.7872 36.0603 28.8929 36.0234C29.0774 35.9592 29.2954 35.8667 29.3989 35.8497C29.5024 35.8317 30.4346 35.8693 30.971 35.1784C31.2569 34.8102 31.3901 34.2949 31.2278 33.6722C29.9953 28.9474 28.4968 24.3249 26.9317 19.7268ZM25.9366 32.8012C24.8993 32.8775 23.8628 32.9527 22.8265 33.0274C21.8603 33.0967 21.3087 32.4031 21.5841 31.4751C22.3513 28.8857 23.0666 26.28 23.7417 23.6584C23.9832 22.7205 24.2135 21.9556 24.2636 21.9533C24.3137 21.9506 24.6049 22.6922 24.9089 23.6121C25.7168 26.0538 26.4907 28.509 27.2079 30.9845C27.4753 31.9151 26.9017 32.7303 25.9366 32.8012Z" fill="black"/>
<path d="M48.4336 14.8335C48.1527 14.8747 47.9234 14.9662 47.7426 15.093C47.406 15.3303 46.9626 15.9673 46.8263 16.4631C46.7466 16.7529 46.7356 17.0689 46.7999 17.3836C47.0035 18.3911 47.2416 19.3915 47.4453 20.3988C47.4642 20.4892 47.4932 20.5752 47.5293 20.6556C47.59 20.7914 47.62 21.0679 47.6192 21.2906C47.6192 21.4228 47.632 21.5569 47.6601 21.6913C47.7706 22.2126 47.9224 22.7231 48.1021 23.2239C48.4001 24.054 48.7914 25.4596 49.4404 25.9801C49.8052 26.2722 50.2872 26.4318 50.8575 26.3398C55.835 25.5306 61.1298 24.8721 65.5429 26.7932C66.431 27.1797 66.3093 27.6005 65.3426 27.6759C58.0989 28.2393 50.4697 32.0949 49.8335 39.7848C49.431 44.6492 52.284 48.2077 55.9503 51.0375C59.9928 54.1595 65.4377 54.461 70.343 53.3708C71.2891 53.1602 72.0658 53.214 72.1118 53.5567C72.1574 53.901 72.1574 54.8643 72.6634 55.4096C72.9401 55.7084 73.3433 55.9054 73.8743 55.9054H79.0424C79.134 55.9054 79.2188 55.8968 79.3009 55.8848C79.4432 55.8625 80.1924 55.8103 80.6951 55.3204C80.9741 55.0483 81.166 54.6697 81.196 54.1826C81.8228 44.1242 83.5867 32.5254 78.4415 23.3058C72.5565 12.7592 58.6519 13.3394 48.4336 14.8335ZM78.0083 50.7114C77.9294 51.6774 77.324 52.4598 76.6511 52.4598C75.9773 52.4598 75.3959 52.0266 75.3873 51.4914C75.3814 51.1678 75.3822 50.8441 75.3822 50.5213C75.3822 49.76 74.978 49.2602 74.4454 49.0205C73.5626 48.6232 72.0162 49.3577 71.0846 49.6275C67.6321 50.625 64.1439 50.7819 60.6057 49.7013C56.471 48.4374 52.5526 43.8926 53.3629 39.4452C54.7422 31.8759 65.1652 29.9605 71.2625 31.5086C72.2601 31.7622 72.9895 31.1876 73.2731 30.4436C73.62 29.5387 73.0623 28.5726 72.958 28.3534C72.8981 28.2275 72.8211 28.1034 72.7233 27.9831C67.7854 21.9042 60.4859 21.6341 53.3644 22.5199C52.4038 22.6394 51.4377 22.3276 51.258 21.781C51.1519 21.4572 51.0585 21.1251 50.984 20.7753C50.9661 20.685 50.9361 20.5998 50.8993 20.5185C50.8368 20.3823 50.8068 20.1044 50.8076 19.8827C50.8084 19.75 50.7966 19.6168 50.769 19.4827C50.7194 19.2353 50.6663 18.9891 50.614 18.7416C50.5258 18.3332 51.2305 17.8965 52.1928 17.7903C61.7923 16.7354 72.8241 17.5326 76.7757 27.8122C79.4716 34.8289 78.6249 43.1405 78.0083 50.7114Z" fill="black"/>
<path d="M68.5786 36.086C66.4321 34.8854 63.8281 35.2691 61.88 36.646C59.5271 38.3113 59.0211 41.6567 60.6677 43.9352C62.1234 45.9499 65.1803 46.8129 67.5913 46.4276C70.8024 45.9157 72.067 43.3572 71.7407 40.8219C71.5018 38.9569 70.4005 37.104 68.5786 36.086ZM68.2427 41.8904C68.2223 41.9666 68.1991 42.0395 68.1734 42.1079C67.4688 43.9661 64.6997 42.8151 63.4684 42.013C62.8639 41.6199 63.5146 40.2362 63.8067 39.8894C64.3033 39.3021 65.2538 38.832 66.0288 38.8679C67.5023 38.9364 68.6068 40.5042 68.2427 41.8904Z" fill="black"/>
</svg>
