<?xml version="1.0" encoding="UTF-8"?>
<svg width="1200pt" height="1200pt" version="1.1" viewBox="0 0 1200 1200" xmlns="http://www.w3.org/2000/svg">
 <g fill-rule="evenodd">
  <path d="m887.89 343.2c-63.398-21.074-70.074-101.32-117.65-145.32-48.324-44.727-118.43-75-214.52-62.273-106.18 74.051-202.7 190.95-179.93 359.85 17.949 133.12 108.85 264.65 173 346.02-22.602 181.1 114.48 297.85 256.02 193.77-36.949 64.574-121.5 81.477-221.4 83.023-81-59.398-47.676-152.15-69.227-249.12-11.75-52.852-72.051-76.875-103.8-124.57-33.574-50.426-67.773-132.25-76.148-186.85-32.625-213.25 130.32-450.6 263-470.57 130.47-19.699 296.97 70.902 290.65 256.05z"/>
  <path d="m645.69 689.2c28.875 1.125 32.051 27.926 34.625 55.375-26.227-3.7734-40.625-19.348-34.625-55.375z"/>
  <path d="m853.31 793.02c0.60156 55.949-11.898 98.824-69.199 96.875 12.625-26.574 48.352-30.074 41.477-76.102-21.5-3-77.352 3.1758-96.852-20.773-31.602-58.625 0.30078-132.2 41.5-159.18-28.148-101.95 69.227-154.55 6.9258-242.2-8.0508 1.125-12.301-1.5508-13.824-6.9258-120.48 11.398-139.45 165.23-117.68 276.82-81.699-99.602-4.3242-297.8 110.73-311.43-18.148-124.18-175.77-189.57-256.02-83.023 48.977-157.57 232-104.62 297.55 13.824 36.199 65.398 77.773 228.68 62.301 290.65-10.5 41.949-96.875 73.648-103.82 110.7-13.582 72.73 61.77 96.18 96.918 110.75z"/>
 </g>
</svg>
