<svg  xmlns="http://www.w3.org/2000/svg" xmlns:xlink="http://www.w3.org/1999/xlink" version="1.1" x="0px" y="0px" viewBox="0 0 100 100" style="enable-background:new 0 0 100 100;" xml:space="preserve"><path d="M86.564,12.05c-0.016-0.07-0.043-0.139-0.09-0.199c-0.008-0.01-0.019-0.015-0.028-0.024  c-0.004-0.005-0.004-0.012-0.009-0.016c-0.008-0.008-0.021-0.009-0.029-0.016c-0.058-0.052-0.124-0.089-0.196-0.109  c-0.014-0.004-0.025-0.011-0.039-0.013c-0.083-0.016-0.166-0.008-0.248,0.019c-0.008,0.003-0.016-0.001-0.024,0.002L41.013,28.887  c-0.183,0.069-0.308,0.239-0.32,0.435s0.09,0.38,0.262,0.473l11.337,6.107l2.021,14.916c0.002,0.019,0.006,0.037,0.01,0.056  c0.021,0.091,0.067,0.171,0.129,0.233c0.028,0.029,0.061,0.055,0.096,0.076c0.077,0.048,0.167,0.074,0.261,0.074  c0.025,0,0.052-0.003,0.078-0.006c0,0,0.001,0,0.001,0c0.127-0.021,0.235-0.087,0.311-0.18l7.667-9.473l9.173,4.942  c0.074,0.039,0.155,0.06,0.237,0.06c0.057,0,0.114-0.01,0.169-0.029c0.134-0.048,0.241-0.15,0.294-0.282l13.805-33.939  c0.004-0.01,0-0.021,0.003-0.032c0.024-0.072,0.031-0.146,0.021-0.222C86.566,12.079,86.567,12.065,86.564,12.05z M42.389,29.431  l5.042-1.931l-0.217,2.07l0.497,0.053l0.243-2.323l1.878-0.72c0.07,1.453,0.02,2.917-0.163,4.358L50.167,31  c0.193-1.524,0.243-3.073,0.159-4.609l1.687-0.646l-0.073,4.661l0.5,0.008l0.076-4.861l1.542-0.591  c0.122,1.62,0.146,3.256,0.055,4.87l0.499,0.029c0.096-1.687,0.072-3.397-0.063-5.088l1.611-0.617  c0.144,1.464,0.249,2.946,0.299,4.419l0.5-0.018c-0.052-1.528-0.161-3.07-0.313-4.588l1.596-0.611  c-0.037,1.674-0.024,3.363,0.056,5.032l0.499-0.023c-0.082-1.725-0.096-3.473-0.053-5.201l1.738-0.666  c0.043,1.689,0.128,3.398,0.258,5.086l0.498-0.039c-0.134-1.738-0.221-3.498-0.263-5.236l1.671-0.64  c0.079,0.954,0.097,1.919,0.039,2.877l0.499,0.031c0.063-1.032,0.044-2.072-0.047-3.096l1.73-0.662  c-0.014,1.076,0.012,2.161,0.086,3.233l0.499-0.035c-0.078-1.123-0.106-2.262-0.086-3.389l1.453-0.557  c-0.068,0.741-0.058,1.487,0.072,2.223l0.492-0.086c-0.136-0.772-0.148-1.556-0.053-2.333l1.263-0.484  c0.015,0.636,0.102,1.266,0.299,1.875l0.476-0.154c-0.2-0.618-0.289-1.26-0.286-1.908l13.414-5.138L52.719,34.995L42.389,29.431z   M54.851,47.339l-1.562-11.522l25.524-17.937L56.554,37.432c-0.087,0.077-0.145,0.182-0.164,0.297L54.851,47.339z M60.008,43.538  c-0.142-1.087-0.262-2.18-0.337-3.268l-0.499,0.035c0.087,1.255,0.226,2.519,0.401,3.77l-0.44,0.543  c-0.234-1.125-0.393-2.268-0.43-3.418l-0.5,0.016c0.043,1.318,0.224,2.63,0.518,3.912l-0.458,0.566  c-0.098-0.896-0.196-1.795-0.319-2.69l-0.495,0.068c0.145,1.052,0.266,2.114,0.376,3.163l-0.296,0.366  c-0.089-0.701-0.161-1.409-0.2-2.117l-0.499,0.027c0.048,0.881,0.139,1.764,0.262,2.629l-1.492,1.844l1.667-10.403l3.148,1.696  c0.052,0.843,0.117,1.685,0.196,2.516L60.008,43.538z M61.067,42.23c-0.049-0.555-0.093-1.111-0.13-1.67l1.032,0.556L61.067,42.23z   M72.022,45.396l-14.267-7.687l27.064-23.774L72.022,45.396z"></path><path d="M42.468,44.052c-10.565,5.877-20.335,13.109-29.041,21.496l0.693,0.721c8.644-8.327,18.345-15.508,28.834-21.344  L42.468,44.052z"></path><path d="M48.281,52.813c-1.737,2.56-3.661,5.039-5.522,7.438L31.489,74.78l0.79,0.613l11.271-14.529  c1.871-2.411,3.804-4.904,5.559-7.49L48.281,52.813z"></path><path d="M58.207,64.446c-0.616,1.277-1.232,2.555-1.827,3.839c-2.945,6.367-5.388,13.023-7.259,19.783l0.964,0.268  c1.857-6.708,4.28-13.313,7.203-19.631c0.592-1.279,1.206-2.552,1.82-3.824c1.957-4.055,3.98-8.248,5.249-12.66l-0.961-0.275  C62.151,56.274,60.146,60.429,58.207,64.446z"></path><polygon points="35.846,55.751 27.772,67.199 28.18,67.488 36.255,56.04 "></polygon><path d="M51.996,60.742c-2.202,4.73-3.879,9.716-4.985,14.816l0.488,0.105c1.098-5.064,2.764-10.014,4.95-14.711L51.996,60.742z"></path></svg>
