<svg fill="#000000" xmlns="http://www.w3.org/2000/svg" xmlns:xlink="http://www.w3.org/1999/xlink" version="1.1" x="0px" y="0px" viewBox="0 0 67.201 65.76" enable-background="new 0 0 67.201 65.76" xml:space="preserve"><path fill-rule="evenodd" clip-rule="evenodd" d="M58.77,25.727c1.927,0.436,1.604-1.316,3.07-1.328  c3.311,2.484-0.929,5.445-3.412,6.974c-0.595,3.448-2.563,6.092-4.093,8.302c-1.492,2.156-2.156,4.803-4.436,6.642  c-1.924,1.553-4.099,1.254-6.822,1.992c-2.909,0.789-5.556,2.652-9.211,2.656c-5.036,0.007-11.603-1.342-15.351-3.32  c-4.663-2.462-9.033-6.854-9.552-13.284c-0.155-1.923,0.78-3.34-0.682-5.313c-1.229-0.13-2.288-0.43-3.411-0.663  c0.529-1.921,1.662-3.253,3.07-4.317c-0.003,1.034-0.807,2.164,0,2.988c2.6-0.132,3.862-3.28,6.14-5.313  c2.813-2.511,9.178-6.356,11.599-6.31c2.885,0.055,5.301,2.883,7.505,4.649c5.055-1.15,8.69-6.23,14.328-4.981  c1.471,0.326,3.069,2.783,4.777,4.317C55.074,21.919,57.461,22.583,58.77,25.727z M49.56,21.742  c-1.255-1.121-2.496-3.668-4.095-3.985c-5.065-1.002-8.886,6.374-13.646,4.649c-1.573-2.121-3.599-3.802-6.822-4.317  c-3.125,2.604-7.408,4.08-10.234,6.974c1.801,1.907,5.046,2.047,7.846,2.657c2.903,0.632,5.992,1.643,8.87,1.993  c7.812,0.949,14.088-2.196,21.15-1.993C54.77,24.318,51.2,23.208,49.56,21.742z M12.716,31.705  c1.543,4.791,4.404,11.135,10.234,13.615c3.75,1.596,11.813,2.618,16.717,1.993c8.498-1.085,13.214-8.189,13.986-15.94  c-5.103-1.387-11.066,1.74-16.376,2.325c-1.021,0.443-0.03,2.847-1.364,2.989c-1.131-0.007-0.346-1.877-1.023-2.326  c-3.092-0.448-3.7,0.108-5.799,0.997c0.045-0.818,0.051-1.6-0.341-1.993c-5.914,0.239-10.463-1.381-16.374-2.656  C12.294,31.186,12.622,31.412,12.716,31.705z"></path></svg>
