<?xml version="1.0" encoding="UTF-8"?>
<svg width="1200pt" height="1200pt" version="1.1" viewBox="0 0 1200 1200" xmlns="http://www.w3.org/2000/svg">
 <g fill-rule="evenodd">
  <path d="m694.66 889.39c-34.332 149.01-209.12 295.5-388.38 197.35 19.082-52.328 84.484-41.984 114.6-82.766 27.117-36.719 18.797-75.918 31.832-133.7-95.305-23.605-251.55 19.066-318.34-57.309-53.797-61.488-61.469-272.14-65.324-385.17-3.5273-102.64 10.195-255.52 58.953-296.05 60-49.848 261.66-31.812 369.27-31.812 137.18 0 276.2-8.5703 369.25-12.73 45.02-2.0234 185.5-11.965 222.86 12.73 21.926 14.484 47.367 90.727 50.934 120.97 7.5391 64.391 0.058594 136.3-0.21094 200.29-0.72656 186.98 47.043 408.68-133.49 449.1-102.78 22.996-181.96-14.73-311.96 19.105zm-560.29-713.07c-12.863 118.78-33.074 295.25-12.73 432.94 2.5938 17.691 5.3438 57.406 10.402 83.836 6.0859 31.832 9.6953 37.25 21.43 56.242 52.328 84.75 268.45 42.594 331.07 82.766 12.082 49.734-8.9688 105.73-12.73 159.16-14.789 40.078-75.707 70.918-77.805 89.789 77.023-12.785 138.25-17.234 186.03-51.602 66.297-47.633 40.211-166.11 95.496-190.97 79.922-35.973 268.19-12.48 382.02-25.496 16.699-36.336 29.789-87.977 31.832-140.06 6.1055-155.3 1.7539-415.15-38.207-515.71-294.43 7.2539-580.52 10.289-916.81 19.105z"/>
  <path d="m350.84 430.97c98.645-29.16 117.88 106.12 31.832 120.97-63.625 10.973-116.18-96.027-31.832-120.97z"/>
  <path d="m639.39 431.11c51.145 58.055 4.9219 151.6-91.203 114.48-46.262-81.336 18.93-148.18 91.203-114.48z"/>
  <path d="m758.3 526.49c-6.1641-39.008 3.7773-72.176 31.832-89.141 181.62-42.844 54.637 199.22-31.832 89.141z"/>
 </g>
</svg>
