<?xml version="1.0" encoding="UTF-8"?>
<svg width="1200pt" height="1200pt" version="1.1" viewBox="0 0 1200 1200" xmlns="http://www.w3.org/2000/svg">
 <g>
  <path d="m410.52 443.97c-3.332 35.641-37.98 55.605-66.078 29.023-11.898-57.055 49.531-60.523 66.078-29.023z"/>
  <path d="m375.25 207.44c-20.152-6.8672-13.5 31.918-28.367 9.7305-194.84 152.66-115.79 514.5-153.93 792.5-14.363-205.33-66.719-559.55 40.957-715.68 58.637-85.031 185.48-180.59 332.52-110.15 66.785 66.684 113.62 167.12 95.387 281.56 54.73-12.863 115.57-22.508 185.89-28.688 34.695-3.0312 114.75-22.203 169.27 16.027-103.48 79.863-243.4 124.04-353.53 197.44 108.13 71.547 250.7 108.05 361.59 176.77-30 22.105-82.895 22.355-132.37 24.898-85.906 4.3086-174.36 4.4766-227.49-7.4258-8.0625 45.809 11.109 134.41-12.523 184.83-35.168-42.391-17.895-129.91-20.672-189.29-71.195-29.797-154.83-31.699-185.67-102.52-58.637-134.7 49.832-242.66 182.36-266.93 14.848-129.98-36.836-207.62-101.88-269.11-54.781-14.766-130.13-15.27-156.18 15.621-6.6875-1.6602-0.49219-8.3945 4.6406-9.5742zm99.898 496.56c6.0273 29.477 80.605 83.871 113.82 93.652 109.71 32.289 251.51 27.812 369.78 25.152-51.363-28.113-108-63.887-166.6-88.516-59.949-25.184-129.88-35.809-171.29-83.77 89.562-88.855 239.48-118.46 344.07-192.55-172-11.133-531.93 39.758-489.78 246.04z"/>
 </g>
</svg>
