<svg  fill="#000000" xmlns="http://www.w3.org/2000/svg" xmlns:xlink="http://www.w3.org/1999/xlink" version="1.1" x="0px" y="0px" viewBox="0 0 72.96 54" enable-background="new 0 0 72.96 54" xml:space="preserve"><path fill-rule="evenodd" clip-rule="evenodd" d="M47.266,18.058c0.113,0.844-1.057,0.406-1.096,1.098  C45.006,18.582,46.627,16.96,47.266,18.058z"></path><path fill-rule="evenodd" clip-rule="evenodd" d="M43.61,19.887c-1.732,4.031-8.08,5.098-12.437,7.315  c-2.319,1.181-4.482,4.241-7.682,2.561c5.755-2.376,14.148-5.055,19.021-9.511c0.261-0.993-1.725,0.262-1.465-0.731  C41.073,17.931,43.726,19.008,43.61,19.887z"></path><path fill-rule="evenodd" clip-rule="evenodd" d="M37.026,19.155c0.429,0.059,0.308,0.667,0.366,1.097  c-0.684,0.293-1.34,0.612-2.194,0.732C34.635,19.203,36.538,19.886,37.026,19.155z"></path><path fill-rule="evenodd" clip-rule="evenodd" d="M25.687,21.35c0.591-0.104,0.63,0.346,1.098,0.365  c-2.384,4.322-8.383,5.03-10.607,9.511C15.548,27.32,23.949,25.577,25.687,21.35z"></path><path fill-rule="evenodd" clip-rule="evenodd" d="M66.288,20.252c-1.951,7.071-7.644,10.403-12.437,14.632  c-12.175,4.721-28.34,16.203-42.795,9.509c-0.475-3.752-3.587-7.056-3.658-10.241C7.269,28.42,15.726,22.34,20.932,19.521  c6.919-3.747,14.226-5.692,19.386-8.414c6.031,0.94,11.483-5.201,19.02-2.926C63.54,9.451,65.234,14.759,66.288,20.252z   M38.123,29.031c3.604-1.465,8.462-2.916,13.535-5.852c5.421-3.138,15.066-9.229,6.582-13.168  c-9.623-0.001-18.689,3.983-28.164,6.219c-0.249,0.726-1.113,0.836-1.463,1.463c-3.308,0.703-7.267,2.406-10.973,5.487  c-2.709,2.251-7.467,7.063-6.95,9.876c0.535,2.912,4.586,2.964,6.95,2.925c8.883-3.005,19.272-7.173,27.8-11.704  C43.688,26.549,40.331,27.214,38.123,29.031z M60.436,25.007c2.105-0.934,4.261-5.335,2.193-8.047  C60.74,18.613,57.389,22.765,60.436,25.007z M52.388,25.374c0.514,1.802,1.025,3.607,1.829,5.122  c2.459-0.834,4.488-2.096,5.12-4.757c-1.293-0.657-1.442-2.458-2.926-2.926C55.588,24.184,53.571,24.362,52.388,25.374z   M44.341,29.031c0.18,2.625,1.08,4.528,2.194,6.218c2.297-0.994,4.473-2.11,6.219-3.656c-1.145-1.417-0.377-4.746-2.562-5.122  C48.444,27.526,46.542,28.427,44.341,29.031z M37.026,31.592c2.005-0.684,5.471-1.837,5.487-3.293  C40.803,29.517,37.833,29.472,37.026,31.592z M37.392,32.323c0.814,1.868,1.557,3.809,2.193,5.853  c2.025-0.413,4.047-0.831,5.122-2.195c-1.317-1.608-1.165-4.688-2.561-6.217C41.034,31.089,38.876,31.369,37.392,32.323z   M29.344,34.518c1.698,0.034,5.244-1.038,6.219-2.926C33.191,32.268,31.023,33.149,29.344,34.518z M30.442,35.249  c-0.743,2.02,1.352,3.556,1.829,5.487c2.396-0.287,4.427-0.938,5.852-2.194c-1.051-1.51-1.389-3.731-2.193-5.486  C33.756,33.277,31.885,35.488,30.442,35.249z M22.395,36.347c-0.154,4.657,4.245,8.272,8.047,4.755  c-1.037-1.402-2.1-2.777-2.194-5.122C26.108,35.021,24.724,35.758,22.395,36.347z M19.834,37.444  c-0.25,1.213-2.789,0.136-2.926,1.464c0.896,2.272,1.735,4.603,5.486,4.021C21.5,41.143,21.366,38.596,19.834,37.444z   M16.542,42.929c-0.139-1.934-1.289-2.855-1.828-4.388c-0.854,0-1.707,0-2.561,0C11.81,41.811,14.279,42.268,16.542,42.929z"></path></svg>
