<svg viewBox="0 0 126 110" fill="none" xmlns="http://www.w3.org/2000/svg">
<ellipse cx="69.163" cy="18.9674" rx="18.4891" ry="18.4891" fill="#FAF2E8"/>
<path d="M124.164 50.8684C124.003 50.2957 123.476 50.0285 122.959 50.0384C122.916 49.8021 122.771 49.5906 122.51 49.5497C122.542 49.5572 122.576 49.5646 122.608 49.572C122.424 49.3902 122.197 49.3419 121.975 49.3518C120.071 48.1803 116.789 48.2632 114.333 48.5799C114.106 45.9846 111.731 43.3955 110.102 41.6785C108.512 40.0035 106.77 38.832 104.832 37.9042C103.659 36.4297 103.252 34.9341 102.898 33.0291C102.845 32.747 102.849 32.4835 102.872 32.2262C102.355 30.4585 101.827 28.6895 101.281 26.9267C100.135 23.2094 100.471 17.4758 94.9738 17.8617C91.3394 18.1178 87.2237 21.8809 85.2544 24.7421C84.1287 26.375 82.6294 28.4359 81.4987 30.6267C81.3181 30.6193 81.1363 30.6181 80.9371 30.6243C80.4942 30.6379 80.0328 30.6453 79.5776 30.696C80.4967 26.573 82.2781 24.3995 81.6039 19.9152C81.0732 16.4008 79.9153 12.7379 76.9786 10.5199C71.1843 6.14446 63.1212 6.25951 56.4412 8.26599C49.6919 10.2923 44.8638 16.3711 46.7441 23.5521C46.796 23.7451 46.8492 24.0432 46.9111 24.4156C46.3866 24.6964 45.9734 25.1442 45.8262 25.712C32.4872 25.5103 24.0011 44.0659 21.1819 54.6129C20.7316 56.3052 20.426 57.9802 20.2368 59.6329C18.4332 60.4728 16.2894 60.5693 14.221 60.0262C12.2875 59.5153 11.0839 58.517 10.4592 57.2825C11.2855 57.0747 12.0686 56.7035 12.7465 56.1271C15.4766 53.8027 18.5717 48.3795 14.6985 45.5962C11.6641 43.4153 8.87331 46.0922 7.15135 48.5416C6.48582 49.4842 5.95637 50.5245 5.5766 51.6008C5.2896 51.3917 5.01251 51.1628 4.75149 50.9241C3.16066 49.4508 3.6295 42.099 6.41655 42.2129C8.37849 42.292 8.30303 39.4035 6.41655 39.2143C-1.1628 38.4522 -1.38052 50.8709 2.42214 54.7837C3.17798 55.563 4.15153 56.2211 5.22033 56.6936C5.39846 57.4383 5.66319 58.1744 6.08873 58.8832C8.66054 63.1832 15.0437 65.7352 20.05 64.8247C20.4706 75.18 25.5981 84.626 32.3697 92.6717C32.794 92.668 33.2158 92.6977 33.6389 92.7101C35.0305 94.9776 37.757 96.6451 40.7914 97.6879C40.8285 99.9864 41.6388 102.329 42.6037 104.367C44.1549 107.645 46.8529 107.788 50.1051 107.958C53.3895 108.129 56.0008 109.286 59.185 107.817C62.0079 106.514 62.4817 102.225 62.6462 99.379C63.9216 99.635 65.2836 99.6202 66.6146 99.5262C70.0771 99.285 74.0394 100.1 77.5377 99.5484C76.5011 102.12 76.0001 105.129 78.8638 106.748C80.4806 107.658 82.1185 107.809 83.9493 107.827C86.7747 107.855 89.0051 107.963 91.6833 108.82C95.7037 110.11 96.9593 106.125 97.5493 103.128C97.8796 101.457 98.6824 99.0499 98.6503 96.9803C99.3146 96.6587 99.9665 96.2022 100.609 95.6988C102.854 94.8254 105.048 93.3558 106.117 92.4416C108.42 90.4698 114.142 84.3316 114.728 79.7088C115.013 79.0865 115.204 78.3938 115.432 77.7716C118.226 77.5081 121.317 76.6644 123.016 75.6686C124.949 74.538 125.38 72.4696 125.244 70.3518C125.557 68.9688 125.63 67.4658 125.81 66.089C126.428 61.3338 125.457 55.469 124.164 50.8684ZM64.1072 11.5775C68.8611 11.3079 74.6554 12.6105 76.2215 17.6799C77.4449 21.6508 76.5716 27.1333 74.7383 29.6928C74.3956 30.1727 74.3956 31.0461 74.7383 31.5261C74.7519 31.5446 74.7655 31.5533 74.7754 31.5706C74.7445 31.63 74.7024 31.6869 74.6678 31.7425C74.528 31.7376 74.3882 31.7438 74.2497 31.7821C73.6101 31.9615 73.1809 32.1829 72.5599 32.4872C72.2753 32.627 72.1739 32.9598 72.2246 33.2653C67.154 33.2097 61.8867 33.0476 56.8099 33.5721C55.7411 32.5961 54.5708 31.7153 53.4216 30.8704C52.8674 30.4622 52.4666 29.9921 52.166 29.4837C52.1586 29.4021 52.1586 29.3093 52.1413 29.2313C51.9557 28.3085 51.8122 27.3857 51.686 26.4591C52.1363 26.0398 51.9532 25.2889 51.4757 24.9227C51.4733 24.9054 51.4708 24.8844 51.4683 24.8671C51.5945 23.207 51.8753 21.5023 51.7405 19.9919C51.7034 19.5936 51.4522 19.3214 51.1492 19.22C52.1574 13.6731 58.684 11.8868 64.1072 11.5775ZM120.06 70.8912C119.737 71.4355 119.716 72.049 119.89 72.6094C119.446 72.6106 119.053 72.5129 118.648 72.3781C117.796 72.503 116.981 72.4746 116.215 72.3261C115.699 71.7657 114.753 71.5394 114.115 71.955C112.638 72.9199 112.02 74.5305 111.592 76.1783C111.535 76.4009 111.465 76.6211 111.392 76.8413C110.809 77.5415 110.433 78.3616 109.979 79.2907C108.991 81.3268 107.781 83.0711 106.559 84.9761C106.341 85.3163 106.106 85.6132 105.878 85.9261C104.407 87.5133 103.052 88.9829 101.564 90.2014C101.309 90.3857 101.075 90.5787 100.805 90.7617C100.574 90.9188 100.155 91.2232 99.656 91.5584C98.5241 92.2301 97.2549 92.7262 95.7989 93.0354C95.747 93.0132 95.6764 93.0169 95.6319 92.9847C95.0295 92.5604 94.2093 93.0676 94.0955 93.7207C93.832 93.9793 93.5858 94.2601 93.383 94.6015C92.9018 95.4217 93.2234 96.3989 93.9842 96.8962C93.9953 96.9036 94.0089 96.9074 94.0188 96.9135C93.8246 97.6496 93.6762 98.3955 93.4918 99.0536C93.2444 99.9529 93.2778 100.982 93.0984 101.904C92.9859 102.447 92.851 102.987 92.6989 103.526C92.1991 105.402 92.496 104.154 92.0878 104.031C89.6187 103.29 87.5379 103.25 84.9464 103.269C83.9753 103.279 81.4653 103.767 81.0472 102.467C80.5648 100.976 81.3094 99.2256 80.9136 97.6335C80.8901 97.5432 80.848 97.4665 80.8047 97.3886C80.9198 96.4868 80.4571 95.5256 79.3809 95.152C76.2586 94.0844 72.3137 94.7574 69.038 94.7895C66.7359 94.813 63.2845 95.8979 61.1568 94.8464C59.6019 94.0745 58.1224 95.7 58.8695 97.083C58.3747 97.464 58.0098 98.0405 57.9405 98.8186C57.8329 100.051 57.63 102.616 56.8482 103.586C55.9217 104.734 52.1128 103.451 50.8919 103.309C50.1101 103.219 49.3555 103.189 48.5662 103.187C49.4841 102.995 50.3995 102.808 51.2865 102.547C52.6089 102.154 52.667 100.181 51.2865 99.8169C49.6326 99.3802 47.5531 99.4284 45.7433 100.012C45.5528 99.6103 45.3833 99.186 45.2423 98.7481C47.7337 99.1056 50.1076 99.0648 51.8258 98.5996C54.1737 97.9576 54.0537 94.6708 51.8258 93.9793C50.4985 93.5624 49.0734 93.4362 47.6372 93.3397C48.4994 92.9822 49.3221 92.5752 50.0853 91.9654C50.9624 91.264 49.9888 90.0727 49.0858 90.2496C47.7337 90.5168 46.3631 90.5081 45.0555 91.0067C44.7809 91.1143 44.4531 91.2578 44.1154 91.4322C44.1995 91.1452 44.1154 90.8174 43.8209 90.6269C43.242 90.2459 42.5394 90.0752 41.8343 89.9997C41.9369 89.9032 42.0495 89.8166 42.1856 89.735C42.4713 89.5593 42.7806 89.4097 43.08 89.2612C43.1059 89.2488 43.1195 89.2389 43.1344 89.2328C43.1554 89.2253 43.1839 89.2167 43.2321 89.1994C43.2865 89.1808 43.3447 89.1672 43.4003 89.1486C44.7203 89.1301 45.0172 86.6424 43.3014 86.635C41.5126 86.6226 38.7318 87.8609 38.8381 89.9478C38.3903 89.9515 37.9388 89.9539 37.4898 89.9799C36.7228 89.2958 35.9954 88.5202 35.2779 87.6395C35.0281 87.3351 34.7324 87.1954 34.4318 87.1657C34.031 86.6511 33.6475 86.1303 33.2702 85.602C33.3012 85.607 33.3259 85.6243 33.3618 85.628C34.7237 85.7431 35.962 85.5884 37.2993 85.3447C38.4893 85.127 39.7474 85.1171 40.6554 84.219C40.9485 83.9296 40.9745 83.3915 40.6554 83.1057C38.8109 81.4357 35.4981 83.1032 33.3618 83.3803C32.7804 83.4521 32.4402 83.8219 32.3276 84.2401C31.5161 83.0315 30.7566 81.7981 30.0688 80.5339C32.0047 80.1739 33.9345 79.5579 35.7888 79.0779C37.2993 78.6833 36.9059 76.5197 35.4313 76.4442C33.1168 76.3242 30.9854 77.45 28.7427 77.8941C28.1303 76.5667 27.5823 75.2084 27.1184 73.8155C29.0395 73.7735 30.9396 73.4098 32.888 73.2848C34.678 73.1673 34.7002 70.3914 32.888 70.4805C30.7256 70.5844 28.546 70.9852 26.4034 71.4157C25.9828 69.7704 25.6562 68.0893 25.4719 66.3537C26.5123 66.0754 27.7147 66.1422 28.7117 66.0259C30.1504 65.8614 31.5557 65.7364 32.9968 65.6016C34.6805 65.442 34.6805 63.1436 32.9968 62.9865C31.1141 62.8071 29.5282 63.2141 27.6974 63.3625C26.8586 63.4293 26.057 63.4986 25.2888 63.6471C25.269 62.9828 25.2641 62.3185 25.2864 61.6406C26.0274 60.5693 26.5333 59.2246 26.7139 57.5757C26.9935 57.5249 27.2743 57.4854 27.5563 57.426C28.7018 57.1909 30.2642 57.2243 31.2031 56.5044C31.6522 56.1605 31.6856 55.5828 31.2031 55.2426C30.3075 54.6105 29.256 54.8566 28.2305 55.0137C27.4957 55.1251 26.777 55.2624 26.0533 55.3713C26.2364 54.5548 26.4405 53.7421 26.6842 52.933C26.777 52.9269 26.8685 52.9071 26.9588 52.8687C29.063 51.9966 31.307 51.9113 33.4545 51.2816C34.6396 50.934 34.8376 48.9065 33.4545 48.6875C31.6843 48.4067 29.6605 48.9362 27.8743 49.6833C27.8606 49.6784 27.847 49.6821 27.8347 49.6772C28.5398 47.9144 29.3562 46.1875 30.2407 44.5175C30.6254 44.7129 31.0943 44.7562 31.5817 44.5199C33.4768 43.6033 35.3979 43.3027 37.4452 42.9427C39.0967 42.652 38.5969 40.2175 37.0667 40.1445C35.44 40.0653 33.7675 40.4723 32.1952 41.0612C32.3152 40.8608 32.4303 40.6554 32.5503 40.46C36.3641 34.1944 41.2516 31.505 47.6372 28.9097C47.9539 30.5599 48.3844 32.267 48.9856 33.5808C49.2936 35.0677 49.7451 36.666 50.6989 37.7743C50.9933 38.1145 51.3112 38.3162 51.6304 38.4349C51.712 38.832 52.0633 39.1697 52.4295 39.2786C55.1992 40.1111 58.1075 39.8538 60.9626 39.7103C64.4572 39.5334 67.9568 39.7412 71.4453 39.5644C73.7487 39.4481 74.9449 38.0589 75.5312 36.2874C76.3638 35.3139 77.0714 34.1807 77.3484 32.9709C77.4375 32.9623 77.5229 32.9573 77.6058 32.9412C77.6181 32.9598 77.6231 32.9796 77.6317 32.9981C77.8247 33.326 78.1055 33.5202 78.4111 33.6117C78.4321 33.6191 78.4457 33.6327 78.4655 33.6402C79.0036 33.8566 79.5999 33.916 80.1924 33.9383C79.8609 35.2236 79.7669 36.4965 80.065 37.7075C80.3359 38.806 81.9861 39.0621 82.518 38.0267C82.5787 37.8981 82.6467 37.7756 82.7283 37.6593C82.8446 37.4812 82.8446 37.2202 82.7283 37.0408C82.9795 37.4354 83.5163 36.3146 84.099 35.4487C84.955 34.1807 85.701 32.7878 86.3331 31.3986C87.7099 28.3753 90.1295 25.8938 92.7978 24.0234C94.3924 22.9051 95.5428 22.6157 95.961 25.1936C96.3259 27.4525 97.3724 29.767 97.5085 32.0332C97.6347 34.1214 98.6231 37.2399 100.204 38.717C100.288 38.7974 100.386 38.8531 100.482 38.9137C101.837 40.7791 104.407 41.8887 105.982 43.5291C107.655 45.2733 108.678 47.0262 109.702 48.9955C109.714 50.5864 109.77 52.7463 111.233 53.4365C112.061 53.8262 112.936 53.9487 113.823 53.9759C114.834 53.3895 116.022 53.0147 117.351 52.9231C118.663 52.8341 120.102 53.1223 121.479 53.6171C121.129 59.3063 122.967 66.0209 120.06 70.8912Z" fill="black"/>
<path d="M61.4266 25.509C61.6554 25.5214 61.9436 25.509 62.2566 25.4904C62.4112 26.0125 62.5597 26.532 62.7007 27.059C62.4397 27.085 62.1811 27.111 61.9412 27.1332C60.4097 27.2817 59.096 27.5291 57.5756 27.8618C56.0417 28.1983 54.7614 27.774 53.7284 29.0816C53.3747 29.5306 53.3672 30.0019 53.7284 30.4485C54.7057 31.6645 56.0306 31.5297 57.5027 31.3144C59.5153 31.0188 61.5008 30.6872 63.5122 30.3842C63.5592 30.6155 63.6211 30.8456 63.6668 31.0744C64.0107 32.7556 66.7087 32.7556 67.0539 31.0744C67.1491 30.6081 67.1639 30.1392 67.1454 29.6778C69.7061 29.0061 72.1505 27.8606 73.5656 25.5721C74.0011 24.8682 73.7735 24.105 73.2997 23.5099C71.6519 21.4404 67.9346 21.668 64.8779 21.9723C64.3447 20.5621 63.7571 19.1902 63.1386 17.8294C64.8148 17.42 66.3574 18.1461 68.0794 17.8369C68.6719 17.7305 68.8228 16.7507 68.2538 16.5021C66.5875 15.776 65.3814 14.9372 63.5357 15.0214C63.0223 15.0461 62.5065 15.1216 61.9919 15.2329C61.7445 14.6589 61.4909 14.0886 61.2571 13.4998C60.9379 12.6821 59.5685 12.4458 59.3557 13.4998C59.1751 14.4066 59.1801 15.2638 59.2865 16.1013C58.7484 16.3165 58.2239 16.5466 57.7204 16.7681C55.3886 17.7998 52.025 20.087 53.6567 23.0238C54.9407 25.3333 59.1925 25.4026 61.4266 25.509ZM69.3053 25.175C68.4863 25.7465 67.4806 26.1374 66.4279 26.4195C66.2832 25.9902 66.1298 25.5659 65.9801 25.1428C67.1738 25.05 68.3651 25.0142 69.3053 25.175ZM57.2157 20.5546C57.9171 19.873 58.9339 19.3362 59.9891 18.9007C60.3305 19.8644 60.7276 20.828 61.0814 21.8276C61.1272 21.9587 61.1693 22.0985 61.215 22.2284C59.3384 22.2271 55.6916 22.0304 57.2157 20.5546Z" fill="black"/>
<path d="M92.8659 50.2646C90.9275 51.9557 92.0594 55.4825 94.8316 55.4825C97.605 55.4825 98.7369 51.9557 96.7972 50.2646C95.8138 48.9336 93.8494 48.9336 92.8659 50.2646Z" fill="black"/>
<path d="M117.002 59.9261C116.732 62.5251 115.914 65.9196 116.815 68.4332C117.357 69.9536 119.227 69.8558 119.804 68.4332C120.332 67.1343 120.275 65.6796 120.329 64.2953C120.388 62.8233 120.409 61.3932 120.279 59.9261C120.091 57.8046 117.218 57.8293 117.002 59.9261Z" fill="black"/>
</svg>
