<svg  fill="#000000" xmlns="http://www.w3.org/2000/svg" xmlns:xlink="http://www.w3.org/1999/xlink" version="1.1" x="0px" y="0px" viewBox="0 0 56.88 53.04" enable-background="new 0 0 56.88 53.04" xml:space="preserve"><path fill-rule="evenodd" clip-rule="evenodd" d="M31.698,14.465c3.831,0.107,6.607-3.243,10.081-2.371  c3.535,0.886,3.578,8.511,2.075,11.563c-2.332,1.562-3.153-1.483-5.634-0.89c-3.637,0.871-4.79,10.717,0.593,11.268  c2.954,0.301,2.882-2.469,6.523-2.076c1.193,2.723,1.967,6.906,1.483,10.377c-8.542,4.176-19.283,5.949-31.134,7.414  c-1.787-3.416-2.265-7.256-2.668-12.453c-0.476-6.105-2.508-12.405-2.373-17.791c2.768-1.384,6.354-1.947,9.488-2.965  c0.138-1.364-1.463-1.828-1.778-3.262C16.4,4.392,28.658-0.157,33.18,6.757C33.599,10.4,33.105,12.213,31.698,14.465z M22.801,4.682  c-3.959,2.662-3.061,10.85,1.482,12.157c-4.678,0.108-8.432,1.878-12.156,2.668c2.604,8.788,3.525,19.137,4.448,28.76  c9.199-1.449,21.282-3.264,28.761-6.521c-0.599-2.662-0.777-5.744-1.482-8.303c-2.585,1.219-5.149,2.305-8.6,1.186  c-3.552-3.416-0.626-10.053,2.077-12.453c0.973-0.411,2.068-0.699,3.558-0.593c0.958-0.341,1.553,2.09,1.779,0.593  c0.076-3.634-0.508-6.608-1.482-9.191c-4.284,0.206-8.392,2.582-11.268,2.372C34.07,10.433,30.333,1.515,22.801,4.682z"></path></svg>
