<?xml version="1.0" encoding="UTF-8"?>
<svg width="1200pt" height="1200pt" version="1.1" viewBox="0 0 1200 1200" xmlns="http://www.w3.org/2000/svg">
 <g>
  <path d="m602.53 558.32c-6.3164 48-12.633 92.211-18.949 136.42 40.422 16.422 77.051 31.578 113.68 45.473 20.211 7.5781 41.684 11.367 61.895 17.684 7.5781 2.5273 18.949 10.105 18.949 16.422s-7.5781 17.684-15.156 21.473c-49.262 27.789-99.789 55.578-149.05 83.367-6.3164 3.7891-10.105 15.156-10.105 22.738 1.2617 12.633 7.5781 25.262 10.105 37.895 10.105 36.633 42.949 40.422 70.738 45.473 31.578 6.3164 63.156 2.5273 94.738 6.3164 49.262 6.3164 99.789 7.5781 145.26 22.738 44.211 13.895 74.527 49.262 85.895 97.262 2.5273 13.895 6.3164 27.789 11.367 40.422 12.633 37.895 10.105 42.949-32.844 44.211-1.2617-5.0508-5.0508-11.367-5.0508-17.684 0-51.789-25.262-93.473-65.684-118.74-32.844-20.211-75.789-24-114.95-30.316-63.156-8.8438-126.32-11.367-189.47-20.211-12.633-1.2617-27.789-16.422-32.844-29.051-12.633-31.578-24-65.684-12.633-101.05 3.7891-12.633 12.633-26.527 24-32.844 37.895-21.473 78.316-39.156 125.05-60.633-56.844-18.949-103.58-35.367-151.58-50.527-22.738-7.5781-29.051-21.473-26.527-42.949 5.0508-31.578 8.8438-64.422 13.895-98.527-21.473-5.0508-46.738-8.8438-69.473-16.422-27.789-8.8438-35.367-32.844-17.684-56.844 12.633-16.422 29.051-31.578 45.473-44.211 18.949-13.895 42.949-22.738 61.895-37.895 13.895-10.105 25.262-21.473 21.473-44.211-2.5273-15.156 5.0508-32.844 10.105-48 21.473-72 34.105-149.05 93.473-203.37 37.895-35.367 77.051-70.738 122.53-94.738 32.844-17.684 75.789-17.684 114.95-24 5.0508-1.2617 27.789 6.3164 27.789 10.105 1.2617 5.0508-3.7891 16.422-8.8438 21.473-5.0508 5.0508-25.262 5.0508-32.844 6.3164-63.156 5.0508-114.95 32.844-164.21 75.789-45.473 39.156-70.738 85.895-88.422 140.21-11.367 36.633-20.211 74.527-25.262 112.42-7.5781 61.895-48 93.473-98.527 120-13.895 7.5781-24 20.211-36.633 30.316 13.895 5.0508 29.051 10.105 42.949 12.633 16.426 2.5312 30.32 2.5312 50.531 5.0586z"/>
  <path d="m282.95 622.74c12.633-22.738 30.316-27.789 49.262-18.949 34.105 16.422 66.949 34.105 98.527 53.051 8.8438 5.0508 15.156 15.156 18.949 24 2.5273 5.0508 0 15.156-3.7891 20.211-2.5273 2.5273-12.633 2.5273-16.422 1.2617-49.266-26.523-97.266-53.051-146.53-79.574z"/>
  <path d="m312 989.05c-11.367-27.789-1.2617-45.473 18.949-54.316 35.367-15.156 72-27.789 108.63-39.156 6.3164-1.2617 13.895 5.0508 21.473 7.5781-3.7891 7.5781-3.7891 20.211-10.105 22.738-45.477 21.473-90.949 41.684-138.95 63.156z"/>
  <path d="m247.58 832.42c-1.2617-3.7891-7.5781-13.895-5.0508-16.422 10.105-10.105 21.473-21.473 34.105-24 30.316-6.3164 61.895-11.367 113.68-16.422 8.8438-1.2617 18.949 8.8438 29.051 13.895-7.5781 7.5781-13.895 21.473-22.738 24-47.996 6.3164-94.734 11.371-149.05 18.949z"/>
 </g>
</svg>
