<svg fill="#000000" xmlns="http://www.w3.org/2000/svg" xmlns:xlink="http://www.w3.org/1999/xlink" version="1.1" x="0px" y="0px" viewBox="0 0 50.64 62.64" enable-background="new 0 0 50.64 62.64" xml:space="preserve"><path fill-rule="evenodd" clip-rule="evenodd" d="M35.902,22.835c-0.466,0.58-1.301,0.607-2.061,0.258  C33.405,20.876,36.282,20.279,35.902,22.835z"></path><path fill-rule="evenodd" clip-rule="evenodd" d="M18.895,21.29c0.085,1.116-0.355,1.706-1.031,2.061  C16.044,23.195,16.862,20.543,18.895,21.29z"></path><path fill-rule="evenodd" clip-rule="evenodd" d="M41.996,23.743c0.992,0.344,2.147-0.179,2.925,0.381  c1.203,2.292,0.83,4.618,0.774,7.989c-1.065,1.895-1.813,1.768-3.878,2.368c0.202,1.063-0.358,1.97-0.537,2.864  c-0.849,2.851-3.475,4.685-6.408,5.592c-1.419,0.438-3.168-0.199-4.124,1.031c4.957,0.74,8.503,3.655,9.792,8.504  c0.314,1.179,1.105,4.001-0.772,4.381c-0.405-4.816-3.28-9.212-7.988-10.565c-2.268,2.026-9.007,6.795-10.049,0.515  c-4.616-0.082-7.298,5.132-9.277,9.277c-0.623-3.322,3.775-8.623,6.958-10.823c1.559-0.395,2.045,0.328,2.319-0.258  c0.806-0.936-0.506-1.402-0.773-2.062c-7.261,0.218-10.814-3.273-11.339-9.792c-0.638,0.89-1.429,0.804-2.577,0.772  c-3.072-2.3-1.065-11.348,3.607-10.05c1.02-1.726,0.511-3.141,0.773-4.896C13.026,8.232,28.36,1.546,37.19,9.178  C40.612,12.134,41.468,18.14,41.996,23.743z M33.067,10.981c-2.663,2.859-10.335,2.802-13.399,0.516  c-2.932,1.449-4.486,4.275-6.443,6.7c-0.237,2.835-0.739,5.965-1.546,7.474c-1.375,0.001-1.065-1.113-3.058-0.854  c-1.857,2.076-3.298,5.793-0.55,7.554c0.985,0.734,1.396-0.891,2.32-1.031c0.617,6.685,6.104,10.3,11.854,10.05  c0.5,1.047,0.853,2.24,1.288,3.351c-0.366,0.492-0.979,0.739-1.03,1.547c1.206,2.441,5.946,1.525,7.472,0  c0.222-1.681-0.589-2.332-0.772-3.608c0.347-0.169,0.48-0.551,0.515-1.031c3.086-0.933,6.277-1.011,8.506-2.575  c2.185-1.537,1.727-4.21,3.092-6.702c0.949,0.685,2.203,0.41,3.098-0.485c0.627-4.474-0.271-7.477-3.613-5.958  C39.527,19.936,39.44,12.939,33.067,10.981z"></path></svg>
