<svg width="79" height="79" viewBox="0 0 79 79" fill="none" xmlns="http://www.w3.org/2000/svg"><path d="M33.17 59.652c-1.832 5.486-3.553 10.548-5.202 15.636-.505 1.56-1.113 2.833-3.051 2.631l-7.271-17.39c-2.118.659-3.748 1.24-5.419 1.67-3.677.946-5.89-.276-6.889-3.878C2.66 48.66.02 38.993.073 28.84c.024-4.533-.205-9.076.047-13.594.25-4.47 2.505-7.301 7.08-8.842 4.965-1.674 10.036-2.24 15.108-2.615C33.936 2.933 45.48.927 57.198 1.22c4.079.102 8.166-.022 12.246-.15 6.958-.218 9.159 2.714 9.249 8.898.115 7.817-.037 15.64-.006 23.46.021 4.883.048 9.77.285 14.645.304 6.273-1.863 9.679-8.033 10.586-4.927.724-9.988.582-14.992.73-4.406.13-8.815.132-13.225.181-3.135.036-6.27.054-9.552.082zm-7.537 13.999c.479-.954.84-1.523 1.062-2.143 1.5-4.17 2.99-8.345 4.446-12.53.547-1.573 1.413-2.169 3.179-1.83 1.69.322 3.472.261 5.21.227 6.528-.13 13.055-.332 19.583-.476 3.716-.081 7.426.074 11.101-.83 4.823-1.186 5.97-2.535 5.895-7.489-.05-3.252-.066-6.503-.079-9.755-.032-9.101-.04-18.204-.107-27.305-.008-1.147-.201-2.322-.507-3.43-.846-3.065-2.051-4.055-5.18-4.25-1.857-.116-3.728-.078-5.595-.085-6.88-.029-13.783-.413-20.634.024-9.075.579-18.136 1.613-27.15 2.837-3.874.527-7.628 1.986-11.406 3.125-.448.135-.705.917-1.339 1.802 3.958-.033 7.381-.06 10.805-.09-.496.559-1.029.711-1.572.779-2.666.33-5.348.546-7.997.976-2.41.392-2.423.531-2.475 3.81 3.09-.024 6.183-.051 9.275-.076l.043.646-9.526 1.478.037 4.537c1.59-.013 3.059-.14 4.501-.003 1.295.122 2.891-.78 4.131.968l-8.553.804.047 5.683 5.825.258.095.822c-1.847.266-3.693.53-5.87.845.309 2.251.583 4.274.847 6.197l5.954 1.06-.07.555-5.366.633c.539 5.057.539 5.047 5.246 5.052 1.369.001 2.737.07 4.106.11l-.024.602-7.733 1.167c.52 1.615.934 2.895 1.44 4.463l9.773-.081.072.772-9.352 1.434c1.151 5.004 2.11 5.54 6.582 3.912 1.29-.469 2.553-1.017 4.22-1.686 2.344 5.472 4.617 10.782 7.06 16.48z" fill="#231F20"/><path d="M15.62 27.744c1.24-.088 2.468-.226 3.7-.256 3.61-.087 7.228-.013 10.83-.218 6.381-.365 12.755-.853 19.126-1.36 4.288-.34 8.563-.85 12.854-1.152.609-.043 1.668.528 1.828 1.034.374 1.186-.427 2.026-1.615 2.167-2.071.245-4.16.343-6.243.501-7.193.547-14.383 1.217-21.585 1.595-5.575.293-11.17.21-16.754.313-1.534.028-2.458-.458-2.141-2.623zm48.197-8.216c-8.88.497-17.601.907-26.31 1.5-6.51.442-13.004 1.126-19.508 1.687-.924.08-1.875.192-2.783.067-1.23-.166-1.845-.91-1.315-2.555.976-.11 2.084-.26 3.194-.355 5.11-.442 10.216-.945 15.333-1.284 4.415-.291 8.841-.356 13.261-.582 4.306-.22 8.607-.483 12.905-.794 1.268-.092 2.512-.486 3.782-.619 1.863-.195 2.04.131 1.44 2.935zM35.389 34.97c-.03 1.808-.23 2.68-2.374 2.569-4.628-.241-9.284-.103-13.924.058-1.764.062-1.899-.8-1.927-2.047 2.147-.83 14.852-1.256 18.225-.58z" fill="#231F20"/></svg>