<svg xmlns="http://www.w3.org/2000/svg" viewBox="0 0 773.28 177.356"><defs><style>.cls-1{isolation:isolate}.cls-2{fill:#1e1e1e}</style></defs><g id="Layer_2" data-name="Layer 2"><g id="Layer_1-2" data-name="Layer 1"><g id="Layer_1-2-2" data-name="Layer 1-2"><g class="cls-1"><path class="cls-2" d="M264.64 0h10.152v75.873H264.64v-4.582a18.857 18.857 0 01-13.521 5.84 19.25 19.25 0 01-14.915-6.559q-5.885-6.692-5.884-16.71 0-9.793 5.884-16.352a18.777 18.777 0 0114.69-6.604q7.681 0 13.746 6.29zm-23.989 53.861a15.238 15.238 0 003.37 10.243 11.033 11.033 0 008.714 3.998 11.599 11.599 0 009.075-3.864 14.96 14.96 0 003.459-10.152 14.964 14.964 0 00-3.46-10.152 11.437 11.437 0 00-8.984-3.909 11.175 11.175 0 00-8.715 3.953 14.57 14.57 0 00-3.459 9.883zm86.745 2.516H296.04a13.286 13.286 0 003.504 8.58 10.682 10.682 0 007.951 3.145 10.342 10.342 0 006.244-1.797 25.56 25.56 0 005.526-6.649l8.535 4.762a33.998 33.998 0 01-4.178 5.772 22.22 22.22 0 01-4.717 3.954 18.936 18.936 0 01-5.435 2.268 26.502 26.502 0 01-6.334.719q-9.794 0-15.723-6.29-5.93-6.333-5.93-16.8 0-10.377 5.75-16.8 5.795-6.335 15.364-6.335 9.657 0 15.273 6.155 5.57 6.11 5.57 16.935zm-10.377-8.266q-2.113-8.086-10.198-8.086a10.479 10.479 0 00-3.459.562 9.919 9.919 0 00-2.942 1.617 10.25 10.25 0 00-2.269 2.538 11.786 11.786 0 00-1.437 3.37z"/></g><g class="cls-1"><path class="cls-2" d="M245.493 98v46.269l14.24-14.15H273.3l-19.002 18.373 20.395 25.38h-13.118L247.11 155.41l-1.617 1.617v16.846h-10.107V98zm45.82 0v75.873h-10.107V98zm45.057 32.119h10.152v43.754H336.37v-4.583q-6.245 5.84-13.432 5.84a19.349 19.349 0 01-15.003-6.558q-5.886-6.693-5.885-16.711 0-9.838 5.885-16.397a18.97 18.97 0 0114.734-6.558q7.636 0 13.701 6.289zm-23.988 21.742a15.238 15.238 0 003.369 10.242 11.032 11.032 0 008.715 3.998 11.598 11.598 0 009.074-3.863 16.628 16.628 0 000-20.305 11.437 11.437 0 00-8.984-3.908 11.175 11.175 0 00-8.715 3.953 14.571 14.571 0 00-3.46 9.883zm57.006-21.742v25.111q0 10.872 8.58 10.871t8.58-10.871v-25.111h10.107v25.336a28.194 28.194 0 01-1.303 9.074 15.238 15.238 0 01-4.357 6.154q-5.121 4.447-13.027 4.447-7.862 0-12.983-4.447a15.476 15.476 0 01-4.447-6.154q-1.258-3.054-1.258-9.074v-25.336z"/></g><g class="cls-1"><path class="cls-2" d="M419.835 139.552v34.32h-10.107v-34.32h-4.313v-9.433h4.313v-16.037h10.107v16.037h7.861v9.433z"/></g><g class="cls-1"><path class="cls-2" d="M475.224 154.376h-31.356a13.285 13.285 0 003.504 8.58 10.681 10.681 0 007.951 3.145 10.342 10.342 0 006.244-1.797 25.558 25.558 0 005.526-6.648l8.535 4.761a33.992 33.992 0 01-4.178 5.773 22.218 22.218 0 01-4.717 3.953 18.936 18.936 0 01-5.435 2.269 26.502 26.502 0 01-6.334.718q-9.794 0-15.723-6.289-5.93-6.334-5.93-16.8 0-10.377 5.75-16.801 5.795-6.334 15.363-6.334 9.658 0 15.274 6.154 5.569 6.11 5.57 16.936zm-10.377-8.265q-2.113-8.086-10.198-8.086a10.479 10.479 0 00-3.459.561 9.92 9.92 0 00-2.942 1.618 10.252 10.252 0 00-2.268 2.538 11.786 11.786 0 00-1.438 3.369zm21.427-15.992h10.108v3.908a19.305 19.305 0 014.941-3.998 11.338 11.338 0 015.211-1.123 16.332 16.332 0 018.356 2.605l-4.627 9.254a9.657 9.657 0 00-5.615-2.066q-8.267 0-8.266 12.488v22.686h-10.108zM530.792 98v37.195q6.064-6.289 13.746-6.29a18.915 18.915 0 0114.734 6.604q5.885 6.56 5.885 16.352 0 10.107-5.93 16.71a19.115 19.115 0 01-14.869 6.56 18.903 18.903 0 01-13.566-5.84v4.582h-10.107V98zm24.033 54.31a15.116 15.116 0 00-3.414-10.242 10.94 10.94 0 00-8.67-4.043 11.622 11.622 0 00-9.074 3.908 14.514 14.514 0 00-3.46 10.063q0 6.379 3.415 10.197a11.35 11.35 0 008.984 3.908 11.143 11.143 0 008.715-3.908 14.352 14.352 0 003.504-9.883zm18.957-.629a21.742 21.742 0 016.783-16.127 23.93 23.93 0 0133.153.045 23.427 23.427 0 01-.045 32.928 23.186 23.186 0 01-16.756 6.603 22.233 22.233 0 01-16.486-6.738 22.658 22.658 0 01-6.649-16.71zm10.332.18q0 6.56 3.504 10.377a13.616 13.616 0 0018.957.045q3.548-3.817 3.549-10.197 0-6.378-3.549-10.197a13.45 13.45 0 00-18.867 0 14.058 14.058 0 00-3.594 9.972zm44.967-.18a21.742 21.742 0 016.783-16.127 23.93 23.93 0 0133.153.045 23.427 23.427 0 01-.045 32.928 23.186 23.186 0 01-16.756 6.603 22.233 22.233 0 01-16.487-6.738 22.658 22.658 0 01-6.648-16.71zm10.332.18q0 6.56 3.504 10.377a13.616 13.616 0 0018.957.045q3.548-3.817 3.549-10.197 0-6.378-3.549-10.197a13.45 13.45 0 00-18.867 0 14.058 14.058 0 00-3.594 9.972zm47.033-21.742h10.108v4.043a21.117 21.117 0 014.986-4.133 12.104 12.104 0 015.525-1.123 13.412 13.412 0 0111.725 6.468 15.175 15.175 0 0112.893-6.468q14.778 0 14.779 17.924v27.043H736.31V149.57q0-6.289-1.527-8.895a5.538 5.538 0 00-5.166-2.65 6.591 6.591 0 00-6.087 3.145q-1.91 3.145-1.91 10.107v22.596h-10.152v-24.168q0-11.679-6.738-11.68a6.754 6.754 0 00-6.222 3.19q-1.954 3.19-1.954 10.063v22.595h-10.108z"/></g><path d="M760.792 168.841a6.244 6.244 0 0112.488.045 6.06 6.06 0 01-1.841 4.448 6.346 6.346 0 01-8.85 0 6.092 6.092 0 01-1.797-4.493z"/><path class="cls-2" d="M168 94.156a83.219 83.219 0 00-97.3-81.9v110.6l26.9-21.8c10.6-8.7 6.1-17-9.6-17v-6.4h64.1v6.4s-21.2 1.3-33.7 11.6l-27.2 22.5 42.9 43.1a83.362 83.362 0 0033.9-67.1m-93.5 37.1l-3.8 3.2v5.8c0 27.3 3 35.3 16.9 37.1a85.442 85.442 0 0026.5-5.2zM0 94.156c0 31.5 19.3 59 45.2 73 2.1-5.7 2.7-14.2 2.7-27v-101.3a146.36 146.36 0 00-.9-18.7c-26.9 13.8-47 41.8-47 74"/></g></g></g></svg>