<svg width="71" height="73" viewBox="0 0 71 73" fill="none" xmlns="http://www.w3.org/2000/svg"><path d="M54.469 2.516h15.89V71H54.47v-7.172c-6.516 6.094-13.524 9.14-21.024 9.14-9.468 0-17.297-3.421-23.484-10.265C3.82 55.72.75 47 .75 36.547c0-10.266 3.07-18.82 9.21-25.664C16.103 4.039 23.79.617 33.024.617c7.97 0 15.118 3.281 21.446 9.844V2.516zm-37.547 34.03c0 6.563 1.758 11.907 5.273 16.032 3.61 4.172 8.157 6.258 13.64 6.258 5.86 0 10.595-2.016 14.204-6.047 3.61-4.172 5.414-9.469 5.414-15.89 0-6.422-1.805-11.72-5.414-15.891-3.61-4.078-8.297-6.117-14.062-6.117-5.438 0-9.985 2.062-13.641 6.187-3.61 4.172-5.414 9.328-5.414 15.469z" fill="#F0F0F0"/></svg>