<svg width="48" height="82" viewBox="0 0 48 82" fill="none" xmlns="http://www.w3.org/2000/svg"><path d="M11.203.828v38.813c4.219-4.375 9-6.563 14.344-6.563 6.156 0 11.281 2.297 15.375 6.89 4.094 4.563 6.14 10.25 6.14 17.063 0 7.032-2.062 12.844-6.187 17.438-4.094 4.562-9.266 6.844-15.516 6.844-5.28 0-10-2.032-14.156-6.094V80H.656V.828h10.547zM36.281 57.5c0-4.375-1.187-7.938-3.562-10.688-2.407-2.812-5.422-4.218-9.047-4.218-3.875 0-7.031 1.36-9.469 4.078-2.406 2.687-3.61 6.187-3.61 10.5 0 4.437 1.188 7.984 3.563 10.64 2.375 2.72 5.5 4.079 9.375 4.079 3.657 0 6.688-1.36 9.094-4.079 2.438-2.75 3.656-6.187 3.656-10.312z" fill="#F0F0F0"/></svg>