<svg width="548" height="571" viewBox="0 0 548 571" fill="none" xmlns="http://www.w3.org/2000/svg"><path d="M64.469 83.516h15.89V152H64.47v-7.172c-6.516 6.094-13.524 9.141-21.024 9.141-9.468 0-17.296-3.422-23.484-10.266-6.14-6.984-9.21-15.703-9.21-26.156 0-10.266 3.07-18.82 9.21-25.664 6.14-6.844 13.828-10.266 23.063-10.266 7.968 0 15.117 3.281 21.445 9.844v-7.945zm-37.547 34.031c0 6.562 1.758 11.906 5.273 16.031 3.61 4.172 8.157 6.258 13.641 6.258 5.86 0 10.594-2.016 14.203-6.047 3.61-4.172 5.414-9.469 5.414-15.891 0-6.421-1.804-11.718-5.414-15.89-3.61-4.078-8.297-6.117-14.062-6.117-5.438 0-9.985 2.062-13.64 6.187-3.61 4.172-5.415 9.328-5.415 15.469zm136.281 20.281v38.813c4.219-4.375 9-6.563 14.344-6.563 6.156 0 11.281 2.297 15.375 6.891 4.094 4.562 6.141 10.25 6.141 17.062 0 7.031-2.063 12.844-6.188 17.438-4.094 4.562-9.266 6.843-15.516 6.843-5.281 0-10-2.031-14.156-6.093V217h-10.547v-79.172h10.547zm25.078 56.672c0-4.375-1.187-7.938-3.562-10.688-2.406-2.812-5.422-4.218-9.047-4.218-3.875 0-7.031 1.359-9.469 4.078-2.406 2.687-3.609 6.187-3.609 10.5 0 4.437 1.187 7.984 3.562 10.64 2.375 2.719 5.5 4.079 9.375 4.079 3.657 0 6.688-1.36 9.094-4.079 2.438-2.75 3.656-6.187 3.656-10.312zM44.354 222.318v12.41c-2.13-2.601-4.04-4.386-5.728-5.354-1.66-.996-3.61-1.494-5.852-1.494-3.514 0-6.433 1.231-8.757 3.694-2.325 2.462-3.487 5.547-3.487 9.255 0 3.791 1.121 6.904 3.362 9.338 2.27 2.435 5.16 3.653 8.674 3.653 2.242 0 4.22-.484 5.936-1.453 1.66-.941 3.61-2.767 5.852-5.478v12.326c-3.791 1.965-7.582 2.947-11.372 2.947-6.254 0-11.483-2.02-15.689-6.059-4.206-4.068-6.308-9.117-6.308-15.149 0-6.032 2.13-11.123 6.391-15.274 4.261-4.15 9.49-6.225 15.689-6.225 3.984 0 7.747.954 11.289 2.863z" fill="#F0F0F0"/><path d="M372.208 199.052l-39.764 272.296-215.933-170.585 255.697-101.711z" stroke="#F0F0F0" stroke-width="36"/></svg>