<svg width="35" height="44" viewBox="0 0 35 44" fill="none" xmlns="http://www.w3.org/2000/svg"><path d="M34.353 3.318v12.41c-2.13-2.6-4.04-4.386-5.727-5.354-1.66-.996-3.61-1.494-5.852-1.494-3.514 0-6.433 1.231-8.757 3.694-2.325 2.462-3.487 5.547-3.487 9.255 0 3.79 1.12 6.904 3.362 9.338 2.269 2.435 5.16 3.653 8.674 3.653 2.242 0 4.22-.484 5.936-1.453 1.66-.94 3.61-2.767 5.851-5.478v12.326c-3.79 1.965-7.58 2.947-11.372 2.947-6.253 0-11.482-2.02-15.688-6.06C3.087 33.035.984 27.986.984 21.954S3.114 10.83 7.376 6.68C11.637 2.53 16.866.455 23.064.455c3.985 0 7.748.954 11.29 2.863z" fill="#F0F0F0"/></svg>