<svg id="Layer_1" xmlns="http://www.w3.org/2000/svg" viewBox="0 0 1440 899"><style>.st0{fill:#4b71f4}</style><path class="st0" d="M198 748.5C109.6 732.9 21.8 792.3-7 824l-.5 108 1458 11c-.5-73-1.3-146-2.6-219.1-.6-34.6-1.3-69.2-2.4-103.7-.7-21.3 16.7-59.2 1.2-75-6.5-6.7-27.3-16.6-35.8-20.4-45.2-20.3-90-41-137-56.8-89.1-30-185.2-24.3-273 9.9-34.2 13.3-66.8 36.5-98.3 55.4-33.1 19.9-65.8 40.7-97 63.5-34.2 24.9-69.4 48.9-108 66.6-41.8 19.2-85.4 35.3-128.1 52.4-.9.4-1.8.7-2.7 1.1-49.8 19.9-95.4 32.3-148.9 36.9-72.3 6-148.2 7.4-219.9-5.3z"/></svg>