<svg data-name="Layer 1" xmlns="http://www.w3.org/2000/svg" viewBox="0 0 1440 899"><path d="M198 748.5C109.6 732.9 21.833 792.333-7 824l-.5 108 1458 10.998q-.72-109.535-2.572-219.061c-.61-34.584-1.304-69.169-2.393-103.741-.672-21.327 16.682-59.217 1.151-74.991-6.549-6.652-27.275-16.62-35.79-20.444-45.207-20.304-89.955-40.971-136.975-56.82-89.122-30.04-185.199-24.287-272.992 9.917-34.24 13.34-66.806 36.492-98.267 55.4-33.134 19.914-65.769 40.724-97.014 63.51-34.195 24.936-69.417 48.862-107.994 66.56-41.826 19.19-85.37 35.318-128.104 52.44l-2.694 1.079c-49.776 19.944-95.422 32.345-148.931 36.854-72.291 6.09-148.227 7.456-219.925-5.201z" fill="#4b71f4"/></svg>