<svg xmlns="http://www.w3.org/2000/svg" viewBox="0 0 774 247"><defs><style>.cls-1{fill:#4b77fd;}.cls-2{fill:#fff;}</style></defs><title>full-coloured</title><g id="Layer_2" data-name="Layer 2"><g id="Layer_1-2" data-name="Layer 1"><rect class="cls-1" width="774" height="247"/><path class="cls-2" d="M293.0088,43.8745h8.8242v65.9443h-8.8242v-3.9824a16.39,16.39,0,0,1-11.752,5.0757,16.7309,16.7309,0,0,1-12.9619-5.7A21.1983,21.1983,0,0,1,263.18,90.6875a20.493,20.493,0,0,1,5.1152-14.2119,16.3185,16.3185,0,0,1,12.7666-5.7393q6.6768,0,11.9473,5.4663ZM272.16,90.6875a13.2437,13.2437,0,0,0,2.9277,8.9019,9.59,9.59,0,0,0,7.5742,3.4751,10.08,10.08,0,0,0,7.8867-3.358,12.9985,12.9985,0,0,0,3.0069-8.8237,13,13,0,0,0-3.0069-8.8237,9.9379,9.9379,0,0,0-7.8086-3.397,9.7126,9.7126,0,0,0-7.5742,3.436A12.6623,12.6623,0,0,0,272.16,90.6875Z"/><path class="cls-2" d="M347.5527,92.874H320.3008a11.5419,11.5419,0,0,0,3.0449,7.4571,9.2846,9.2846,0,0,0,6.9111,2.7334,8.9881,8.9881,0,0,0,5.4268-1.5621,22.214,22.214,0,0,0,4.8018-5.7783l7.4189,4.1387a29.5582,29.5582,0,0,1-3.6309,5.0171,19.3527,19.3527,0,0,1-4.1,3.436,16.4668,16.4668,0,0,1-4.7246,1.9717,23.0262,23.0262,0,0,1-5.5049.6245q-8.5122,0-13.665-5.4663-5.1547-5.5049-5.1543-14.602,0-9.019,4.998-14.6021,5.0363-5.5056,13.3526-5.5054,8.3936,0,13.2744,5.3491,4.8413,5.31,4.8418,14.7193ZM338.5332,85.69q-1.8354-7.0275-8.8623-7.0278a9.11,9.11,0,0,0-3.0068.4883,8.6014,8.6014,0,0,0-2.5567,1.4053,8.8867,8.8867,0,0,0-1.9717,2.206,10.2429,10.2429,0,0,0-1.25,2.9282Z"/><path class="cls-2" d="M276.3682,129.05v40.2148l12.3769-12.2988h11.791l-16.5156,15.9688,17.7256,22.0595h-11.4l-12.5723-16.0468-1.4052,1.4057v14.6411H267.583V129.05Z"/><path class="cls-2" d="M316.1924,129.05v65.9443h-8.7852V129.05Z"/><path class="cls-2" d="M355.3525,156.9663h8.8243v38.0283h-8.8243v-3.9824q-5.4272,5.0757-11.6738,5.0757a16.8171,16.8171,0,0,1-13.04-5.7,21.1979,21.1979,0,0,1-5.1153-14.5244,20.5458,20.5458,0,0,1,5.1153-14.251,16.4861,16.4861,0,0,1,12.8056-5.7q6.6372,0,11.9082,5.4663Zm-20.8486,18.897a13.2437,13.2437,0,0,0,2.9277,8.9018,9.59,9.59,0,0,0,7.5743,3.4751,10.0794,10.0794,0,0,0,7.8867-3.3579,14.45,14.45,0,0,0,0-17.6474,9.938,9.938,0,0,0-7.8086-3.397,9.7124,9.7124,0,0,0-7.5742,3.436A12.6624,12.6624,0,0,0,334.5039,175.8633Z"/><path class="cls-2" d="M384.05,156.9663v21.8252q0,9.4489,7.457,9.4487t7.4571-9.4487V156.9663h8.7851v22.0205a24.5244,24.5244,0,0,1-1.1318,7.8867,13.2438,13.2438,0,0,1-3.7881,5.3492,18.4585,18.4585,0,0,1-22.6055,0,13.4476,13.4476,0,0,1-3.8652-5.3492,21.7284,21.7284,0,0,1-1.0938-7.8867v-22.02Z"/><path class="cls-2" d="M427.8955,165.1655v29.8291H419.11V165.1655h-3.7481v-8.1992H419.11V143.0278h8.7851v13.9385h6.832v8.1992Z"/><path class="cls-2" d="M476.0361,178.05H448.7842a11.5416,11.5416,0,0,0,3.0449,7.457A9.2842,9.2842,0,0,0,458.74,188.24a8.988,8.988,0,0,0,5.4268-1.562,22.2157,22.2157,0,0,0,4.8018-5.7783l7.4189,4.1387a29.5637,29.5637,0,0,1-3.6309,5.0171,19.3557,19.3557,0,0,1-4.1,3.436,16.47,16.47,0,0,1-4.7246,1.9717,23.0262,23.0262,0,0,1-5.5049.6245q-8.5122,0-13.665-5.4663-5.1548-5.5049-5.1543-14.6021,0-9.019,4.998-14.602,5.0362-5.5056,13.3526-5.5054,8.3936,0,13.2744,5.3491,4.8412,5.31,4.8418,14.7193Zm-9.0195-7.1841q-1.8354-7.0275-8.8623-7.0278a9.11,9.11,0,0,0-3.0068.4883,8.6033,8.6033,0,0,0-2.5567,1.4052,8.8889,8.8889,0,0,0-1.9717,2.2061,10.2429,10.2429,0,0,0-1.25,2.9282Z"/><path class="cls-2" d="M485.6406,156.9663h8.7852v3.397a16.7647,16.7647,0,0,1,4.2949-3.4751,9.8467,9.8467,0,0,1,4.5283-.9761,14.1966,14.1966,0,0,1,7.2627,2.2647L506.49,166.22a8.3888,8.3888,0,0,0-4.8808-1.7959q-7.1836,0-7.1836,10.854v19.7168h-8.7852Z"/><path class="cls-2" d="M524.333,129.05v32.3281q5.2706-5.466,11.9473-5.4663a16.4386,16.4386,0,0,1,12.8056,5.7393,20.4924,20.4924,0,0,1,5.1153,14.2119q0,8.7846-5.1543,14.5244a16.6147,16.6147,0,0,1-12.9229,5.7,16.43,16.43,0,0,1-11.791-5.0757v3.9824h-8.7851V129.05Zm20.8877,47.2036a13.1368,13.1368,0,0,0-2.9668-8.9018,9.5085,9.5085,0,0,0-7.5351-3.5142,10.1,10.1,0,0,0-7.8868,3.397,12.6132,12.6132,0,0,0-3.0068,8.7456,12.8,12.8,0,0,0,2.9678,8.8628,9.8633,9.8633,0,0,0,7.8086,3.3969,9.6848,9.6848,0,0,0,7.5742-3.3969A12.4735,12.4735,0,0,0,545.2207,176.2539Z"/><path class="cls-2" d="M561.6973,175.707a18.8963,18.8963,0,0,1,5.8955-14.0166,20.7993,20.7993,0,0,1,28.8144.0391,20.3618,20.3618,0,0,1-.039,28.6191,20.1531,20.1531,0,0,1-14.5635,5.7393,19.3253,19.3253,0,0,1-14.3291-5.8565A19.6935,19.6935,0,0,1,561.6973,175.707Zm8.98.1563q0,5.7012,3.045,9.019a11.8343,11.8343,0,0,0,16.4765.0391,14.277,14.277,0,0,0,0-17.7256,11.689,11.689,0,0,0-16.3984,0A12.2165,12.2165,0,0,0,570.6777,175.8633Z"/><path class="cls-2" d="M609.76,175.707a18.8963,18.8963,0,0,1,5.8955-14.0166,20.7993,20.7993,0,0,1,28.8144.0391,20.3618,20.3618,0,0,1-.039,28.6191,20.1531,20.1531,0,0,1-14.5635,5.7393,19.3253,19.3253,0,0,1-14.3291-5.8565A19.6935,19.6935,0,0,1,609.76,175.707Zm8.98.1563q0,5.7012,3.045,9.019a11.8343,11.8343,0,0,0,16.4765.0391,14.277,14.277,0,0,0,0-17.7256,11.689,11.689,0,0,0-16.3984,0A12.2165,12.2165,0,0,0,618.74,175.8633Z"/><path class="cls-2" d="M659.6182,156.9663h8.7851v3.5142a18.336,18.336,0,0,1,4.334-3.5923,10.5123,10.5123,0,0,1,4.8018-.9761,11.6573,11.6573,0,0,1,10.19,5.6221,13.19,13.19,0,0,1,11.206-5.6221q12.8438,0,12.8448,15.5786v23.5039H702.957V173.8721q0-5.4654-1.3281-7.73a4.812,4.812,0,0,0-4.49-2.3037,5.73,5.73,0,0,0-5.29,2.7329q-1.66,2.7335-1.6591,8.7852v19.6386h-8.8243V173.9893q0-10.1507-5.8564-10.1514a5.87,5.87,0,0,0-5.4072,2.772q-1.6979,2.7729-1.6983,8.7461v19.6386h-8.7851Z"/><path class="cls-2" d="M207.0156,125.7416a72.2893,72.2893,0,0,0-84.6344-71.1855l.0246,96.1193,23.4064-18.9578c9.1953-7.5275,5.2913-14.7727-8.3649-14.7692l-.0015-5.5742,55.7411-.0142.0014,5.5741s-18.3946,1.1194-29.2615,10.0411L140.2418,146.49l37.2792,37.4912a72.141,72.141,0,0,0,29.4946-58.24"/><path class="cls-2" d="M125.7521,157.9207l-3.3437,2.7884.0013,5.0167c.006,23.6872,2.6272,30.6632,14.7063,32.2211a71.98,71.98,0,0,0,23.0556-4.5557Z"/><path class="cls-2" d="M61,125.7416c0,27.403,16.7779,51.2419,39.26,63.4878,1.8307-4.9237,2.3641-12.3635,2.3612-23.4985L102.5989,77.66a133.9285,133.9285,0,0,0-.74-16.2518C78.5041,73.3788,61,97.6935,61,125.7416"/></g></g></svg>